<svg width="316" height="466" fill="none" xmlns="http://www.w3.org/2000/svg"><path d="M306.832 336.81c-1.3.718-1.3 1.957 0 2.675 1.3.718 3.381.718 4.681 0 1.301-.718 1.301-1.957 0-2.675-1.3-.718-3.381-.718-4.681 0zm-12.223-7.047c-1.301.717-1.301 1.957 0 2.675 1.3.718 3.381.718 4.681 0 1.301-.718 1.301-1.958 0-2.675-1.3-.718-3.381-.718-4.681 0zm12.223-7.047c-1.3.718-1.3 1.958 0 2.676 1.3.717 3.381.717 4.681 0 1.301-.718 1.301-1.958 0-2.676-1.3-.783-3.381-.783-4.681 0zM99.026 456.801c-1.3.718-1.3 1.958 0 2.675 1.301.718 3.381.718 4.682 0 1.3-.717 1.3-1.957 0-2.675-1.301-.717-3.381-.717-4.682 0zm-12.159-7.047c-1.3.718-1.3 1.958 0 2.675 1.3.718 3.381.718 4.681 0 1.3-.717 1.3-1.957 0-2.675-1.3-.718-3.446-.718-4.681 0zm24.383 0c-1.301.718-1.301 1.958 0 2.675 1.3.718 3.381.718 4.681 0 1.301-.717 1.301-1.957 0-2.675-1.3-.718-3.381-.718-4.681 0zm-12.224-7.047c-1.3.717-1.3 1.957 0 2.675 1.301.718 3.381.718 4.682 0 1.3-.718 1.3-1.958 0-2.675-1.301-.783-3.381-.783-4.682 0zm24.448 0c-1.3.717-1.3 1.957 0 2.675 1.3.718 3.381.718 4.682 0 1.3-.718 1.3-1.958 0-2.675-1.301-.783-3.447-.783-4.682 0zm-12.224-7.111c-1.301.717-1.301 1.957 0 2.675 1.3.718 3.381.718 4.681 0 1.301-.718 1.301-1.958 0-2.675-1.3-.718-3.381-.718-4.681 0zm24.382 0c-1.3.717-1.3 1.957 0 2.675 1.301.718 3.381.718 4.682 0 1.3-.718 1.3-1.958 0-2.675-1.301-.718-3.381-.718-4.682 0zm-12.158-7.048c-1.3.718-1.3 1.958 0 2.675 1.3.718 3.381.718 4.682 0 1.3-.717 1.3-1.957 0-2.675-1.301-.783-3.447-.783-4.682 0zm24.383 0c-1.301.718-1.301 1.958 0 2.675 1.3.718 3.381.718 4.681 0 1.301-.717 1.301-1.957 0-2.675-1.3-.783-3.381-.783-4.681 0zm-12.225-7.047c-1.3.718-1.3 1.957 0 2.675 1.301.718 3.381.718 4.682 0 1.3-.718 1.3-1.957 0-2.675-1.301-.783-3.381-.783-4.682 0zm24.513-.13c-1.3.718-1.3 1.957 0 2.675 1.301.718 3.381.718 4.682 0 1.3-.718 1.3-1.957 0-2.675-1.301-.718-3.381-.718-4.682 0zm-12.158-7.046c-1.3.718-1.3 1.957 0 2.675 1.3.718 3.381.718 4.681 0 1.301-.718 1.301-1.957 0-2.675-1.3-.718-3.446-.718-4.681 0zm24.383 0c-1.301.718-1.301 1.957 0 2.675 1.3.718 3.381.718 4.681 0 1.301-.718 1.301-1.957 0-2.675-1.3-.718-3.381-.718-4.681 0zm-12.225-7.048c-1.3.718-1.3 1.958 0 2.676 1.301.717 3.381.717 4.682 0 1.3-.718 1.3-1.958 0-2.676-1.301-.783-3.381-.783-4.682 0zm24.448 0c-1.3.718-1.3 1.958 0 2.675 1.3.718 3.381.718 4.681 0 1.301-.717 1.301-1.957 0-2.675-1.3-.718-3.446-.783-4.681 0zm-12.223-7.112c-1.301.718-1.301 1.958 0 2.675 1.3.718 3.381.718 4.681 0 1.301-.717 1.301-1.957 0-2.675-1.3-.717-3.381-.717-4.681 0zm24.383 0c-1.301.718-1.301 1.958 0 2.675 1.3.718 3.381.718 4.681 0 1.301-.717 1.301-1.957 0-2.675-1.3-.717-3.381-.717-4.681 0zm-12.16-7.046c-1.3.718-1.3 1.958 0 2.676 1.3.717 3.381.717 4.681 0 1.301-.718 1.301-1.958 0-2.676-1.3-.717-3.446-.717-4.681 0zm24.383 0c-1.301.718-1.301 1.958 0 2.676 1.3.717 3.381.717 4.681 0 1.301-.718 1.301-1.958 0-2.676-1.3-.717-3.381-.717-4.681 0zm-12.223-7.047c-1.301.718-1.301 1.957 0 2.675 1.3.718 3.381.718 4.681 0 1.301-.718 1.301-1.957 0-2.675-1.3-.783-3.381-.783-4.681 0zm24.447 0c-1.3.718-1.3 1.957 0 2.675 1.301.718 3.381.718 4.682 0 1.3-.718 1.3-1.957 0-2.675-1.366-.783-3.446-.783-4.682 0zm-12.224-7.112c-1.301.717-1.301 1.957 0 2.675 1.3.718 3.381.718 4.681 0 1.301-.718 1.301-1.958 0-2.675-1.3-.718-3.381-.718-4.681 0zm24.382 0c-1.3.717-1.3 1.957 0 2.675 1.301.718 3.381.718 4.682 0 1.3-.718 1.3-1.958 0-2.675-1.301-.718-3.381-.718-4.682 0zm-12.158-7.046c-1.3.718-1.3 1.957 0 2.675 1.301.718 3.381.718 4.682 0 1.3-.718 1.3-1.957 0-2.675-1.366-.718-3.446-.718-4.682 0zm24.383 0c-1.3.718-1.3 1.957 0 2.675 1.3.718 3.381.718 4.681 0 1.301-.718 1.301-1.957 0-2.675-1.3-.718-3.381-.718-4.681 0zm-12.225-7.048c-1.3.718-1.3 1.958 0 2.675 1.301.718 3.381.718 4.682 0 1.3-.717 1.3-1.957 0-2.675-1.301-.783-3.381-.783-4.682 0zm24.513-.065c-1.3.718-1.3 1.957 0 2.675 1.301.718 3.381.718 4.682 0 1.3-.718 1.3-1.957 0-2.675-1.301-.783-3.381-.783-4.682 0zm-12.223-7.112c-1.3.718-1.3 1.957 0 2.675 1.301.718 3.381.718 4.682 0 1.3-.718 1.3-1.957 0-2.675-1.301-.718-3.381-.718-4.682 0zm24.448 0c-1.301.718-1.301 1.957 0 2.675 1.3.718 3.381.718 4.681 0 1.301-.718 1.301-1.957 0-2.675-1.3-.718-3.381-.718-4.681 0zm-12.225-7.046c-1.3.717-1.3 1.957 0 2.675 1.301.718 3.381.718 4.682 0 1.3-.718 1.3-1.958 0-2.675-1.301-.783-3.381-.783-4.682 0zm24.383 0c-1.3.717-1.3 1.957 0 2.675 1.301.718 3.381.718 4.682 0 1.3-.718 1.3-1.958 0-2.675-1.301-.783-3.381-.783-4.682 0zm-12.158-7.047c-1.301.717-1.301 1.957 0 2.675 1.3.717 3.381.717 4.681 0 1.301-.718 1.301-1.958 0-2.675-1.3-.783-3.381-.783-4.681 0zm24.383 0c-1.301.717-1.301 1.957 0 2.675 1.3.717 3.381.717 4.681 0 1.301-.718 1.301-1.958 0-2.675-1.3-.783-3.381-.783-4.681 0zm-12.225-7.113c-1.3.718-1.3 1.958 0 2.676 1.301.717 3.381.717 4.682 0 1.3-.718 1.3-1.958 0-2.676-1.301-.717-3.381-.717-4.682 0zM61.965 462.738c-1.3.718-1.3 1.958 0 2.676 1.3.717 3.381.717 4.681 0 1.3-.718 1.3-1.958 0-2.676-1.3-.717-3.38-.717-4.681 0zm-12.225-7.047c-1.3.718-1.3 1.958 0 2.675 1.3.718 3.381.718 4.682 0 1.3-.717 1.3-1.957 0-2.675-1.3-.718-3.381-.718-4.682 0zm-9.817-3.849c-1.831 0-3.316-.847-3.316-1.892s1.485-1.892 3.316-1.892c1.831 0 3.316.847 3.316 1.892s-1.485 1.892-3.316 1.892zm-14.565-10.309c-1.3.718-1.3 1.957 0 2.675 1.3.718 3.38.718 4.681 0 1.3-.718 1.3-1.957 0-2.675-1.3-.718-3.38-.718-4.681 0zm-12.224-7.048c-1.3.718-1.3 1.958 0 2.675 1.3.718 3.381.718 4.682 0 1.3-.717 1.3-1.957 0-2.675-1.3-.783-3.381-.783-4.681 0zM.975 427.44c-1.3.717-1.3 1.957 0 2.675 1.3.717 3.381.717 4.682 0 1.3-.718 1.3-1.958 0-2.675-1.3-.783-3.382-.783-4.682 0zm85.373 35.298c-1.3.718-1.3 1.958 0 2.676 1.3.717 3.38.717 4.681 0 1.3-.718 1.3-1.958 0-2.676-1.3-.717-3.381-.717-4.681 0zm-12.16-7.047c-1.3.718-1.3 1.958 0 2.675 1.3.718 3.381.718 4.682 0 1.3-.717 1.3-1.957 0-2.675-1.3-.718-3.446-.718-4.682 0zm-12.223-7.046c-1.3.718-1.3 1.957 0 2.675 1.3.718 3.381.718 4.681 0 1.3-.718 1.3-1.957 0-2.675-1.3-.783-3.38-.783-4.681 0zm-12.225-7.112c-1.3.718-1.3 1.957 0 2.675 1.3.718 3.381.718 4.682 0 1.3-.718 1.3-1.957 0-2.675-1.3-.718-3.381-.718-4.682 0zm-12.158-7.048c-1.3.718-1.3 1.958 0 2.675 1.3.718 3.381.718 4.682 0 1.3-.717 1.3-1.957 0-2.675-1.3-.783-3.381-.783-4.682 0zm-12.224-7.045c-1.3.717-1.3 1.957 0 2.675 1.3.717 3.38.717 4.681 0 1.3-.718 1.3-1.958 0-2.675-1.3-.783-3.38-.783-4.681 0zm-12.224-7.113c-1.3.718-1.3 1.958 0 2.676 1.3.717 3.381.717 4.682 0 1.3-.718 1.3-1.958 0-2.676-1.3-.717-3.381-.717-4.681 0zM.975 413.28c-1.3.717-1.3 1.957 0 2.675 1.3.717 3.381.717 4.682 0 1.3-.718 1.3-1.958 0-2.675-1.3-.783-3.382-.783-4.682 0z" fill="#181940"/><path d="M58.909 231.565S70.873 79.995 96.101 65.379c25.228-14.616 39.727 150.135 39.727 150.135L109.95 306.47l-37.842 19.704-13.199-94.609z" fill="#FFD5AD"/><path d="M112.486 308.427l26.333-92.717-.065-.522c-1.235-14.42-13.004-141-35.371-152.68-2.861-1.5-5.917-1.37-8.778.261-25.813 14.942-37.452 152.876-38.687 168.535v.327l13.85 99.046 42.718-22.25zM97.596 67.924c1.105-.653 2.016-.718 3.121-.13 14.695 7.699 27.244 92.129 32.185 147.394l-25.358 89.194-33.03 17.225L61.9 231.5c3.316-42.019 16.19-152.288 35.696-163.576z" fill="#181940"/><path d="M102.831 66.87l3.905 2.082-32.934 62.237-3.905-2.081 32.934-62.237zm7.388 15.079l3.906 2.078-46.932 88.833-3.906-2.078 46.932-88.833zm5.672 18.127l3.909 2.074-44.28 84.048-3.908-2.074 44.279-84.048zm5.853 18.117l3.903 2.085-38.803 73.145-3.903-2.085 38.803-73.145zm1.003 27.161l3.903 2.086-27.84 52.468-3.903-2.085 27.84-52.469zm-4.295 38.955l3.883 2.122-12.344 22.751-3.883-2.122 12.344-22.751z" fill="#181940"/><path d="M209.627 45.283c1.95-11.418 3.836-23.163 3.836-23.163L186.674 4.96s-.585-.261-1.755-.913c-4.162-1.762-8.518-1.501-13.264 1.24-54.228 31.383-59.884 308.621-59.884 308.621s-1.366-16.181-4.487-37.191l1.951-3.588-8.453-71.708-13.654-8.482c-3.901-2.414-7.543-5.285-11.379-7.895-4.811-3.328-10.208-3.719-16.255 0C19.767 209.512 4.032 399.057 4.032 399.057l28.479 17.747 26.268-49.131 181.017-103.744c-.065 0-6.957-144.72-30.169-218.646z" fill="#FFD5AD"/><path d="M164.957 252.249l74.644-45.021c-4.487-47.631-12.289-109.812-25.033-150.526a2678.652 2678.652 0 003.836-23.163l-26.788-17.16s-.586-.262-1.756-.914c-4.161-1.762-8.518-1.5-13.264 1.24-32.25 18.66-47.335 124.362-54.227 206.901l42.588 28.643zM44.083 396.186l59.949-140.479 5.072-13.571-3.446-29.362-13.654-8.482c-3.902-2.414-7.543-5.285-11.379-7.895-4.811-3.328-10.208-3.719-16.255 0-29.194 18.008-45.385 124.949-51.952 180.541l31.665 19.248z" fill="#FEC"/><path d="M34.786 418.826l26.073-49.001 181.928-104.266-.065-1.827c-.065-1.435-7.152-145.046-30.04-218.645a4003.386 4003.386 0 003.707-22.51l.325-1.893-28.87-18.4c-.065-.065-.585-.26-1.755-.913-5.202-2.153-10.533-1.697-15.865 1.435-40.833 23.685-54.747 177.474-59.299 259.752l-7.412-62.834-14.825-9.265c-2.47-1.501-4.811-3.197-7.152-4.894-1.366-.978-2.731-1.957-4.162-2.936-6.046-4.176-12.809-4.241-19.506-.13C17.36 207.489 1.626 391.031.975 398.795l-.13 1.827 31.47 19.705 2.471-1.501zm26.203-231.303c4.747-2.936 8.908-2.936 13.07-.065 1.365.913 2.665 1.892 4.03 2.87 2.472 1.762 4.877 3.524 7.478 5.155l12.419 7.764 8.193 69.424-1.951 3.654.13.979c3.121 20.618 4.486 36.8 4.486 36.995l5.852-.195c.065-2.871 6.242-275.999 58.454-306.209 3.771-2.153 7.217-2.544 10.338-1.24.975.588 1.691.849 1.756.914l25.033 15.986c-.651 3.784-2.081 12.593-3.512 21.27l-.13.718.195.653c21.392 68.249 29 199.136 29.91 216.036L56.568 365.519l-25.163 47.109L7.087 397.49c1.756-19.378 17.88-187.783 53.902-209.967z" fill="#181940"/><path d="M32.445 416.803S48.18 227.258 87.907 202.79c39.728-24.467 52.342 128.93 52.342 128.93s5.657-277.238 59.884-308.622c54.227-31.45 68.142 258.577 68.142 258.577L32.445 416.803z" fill="#FFD5AD"/><path d="M271.265 283.307l-.065-1.827c-.455-9.722-11.898-238.09-54.877-261.644-5.657-3.067-11.574-2.871-17.621.587-43.238 25.055-56.307 195.939-60.014 273.454-5.396-35.756-16.125-85.344-35.111-94.936-5.526-2.806-11.313-2.349-17.23 1.305-40.508 24.99-56.438 210.163-57.088 217.993l3.25 1.958 238.756-136.89zm-170.289-79.081c22.173 11.288 33.811 95.98 36.412 127.69l6.047-3.458c.065-2.74 6.112-272.605 58.258-302.815 4.227-2.414 8.063-2.61 11.834-.522 31.86 17.421 47.725 173.298 51.691 254.923L35.891 411.453c2.99-31.514 19.311-185.043 53.577-206.118 2.406-1.435 4.616-2.218 6.827-2.218 1.626 0 3.121.326 4.681 1.109z" fill="#181940"/><path d="M264.179 234.371l4.942-7.634-22.107-11.353s-2.081-1.24-2.146-1.24c-7.867-3.784-17.23-3.849-28.349 2.545-48.57 28.122-46.684 95.718-97.205 136.042-50.456 40.323-71.588 26.686-71.588 26.686l-5.722 41.106 24.903 12.854 71.978-51.285 142.135-98.524s-4.747-28.122-16.841-49.197z" fill="#FFD5AD"/><path d="M270.031 243.766l4.941-7.634-22.107-11.353s-2.08-1.239-2.145-1.239c-7.868-3.785-17.231-3.85-28.349 2.544-48.571 28.122-46.685 95.719-97.206 136.042-50.456 40.323-71.588 26.686-71.588 26.686l-3.64 27.47 34.46-5.873 57.153-33.798 145.321-83.648s-4.681-28.056-16.84-49.197z" fill="#FEC"/><path d="M140.575 384.571l143.696-99.633-.325-1.827c-.195-1.109-4.747-27.535-16.321-48.61l5.787-8.873-24.838-12.724c-.91-.587-1.69-1.044-2.405-1.37-9.558-4.632-20.027-3.719-31.08 2.675-25.748 14.942-37.582 40.193-50.066 66.945-11.574 24.663-23.472 50.24-47.465 69.358-47.66 38.105-67.947 26.556-68.142 26.491l-3.9-2.545-6.698 47.761 27.309 14.29 74.448-51.938zm-90.378-1.044c8.582 2.349 31.08 3.459 71.002-28.448 25.033-20.031 37.322-46.195 49.156-71.511 12.094-25.904 23.537-50.306 47.725-64.335 9.428-5.415 17.75-6.263 25.553-2.479l.325.13c.585.327 1.56.914 1.756 1.044l19.181 9.853-4.162 6.459.911 1.566c9.948 17.356 14.889 39.867 16.125 46.392l-140.575 97.545-70.482 50.241-21.457-11.092 4.942-35.365z" fill="#181940"/><path d="M306.117 295.9s-15.93-94.936-64.5-66.814c-48.571 28.122-46.685 95.718-97.206 136.042-50.456 40.323-71.588 26.686-71.588 26.686l-5.722 41.106L306.117 295.9zM47.79 379.417l25.034 12.332-5.852 41.693-24.903-12.919 5.722-41.106z" fill="#FFD5AD"/><path d="M66.581 436.574l-2.796-1.435-24.968-12.92 6.632-47.239 25.163 11.745 3.707 2.414.845.391c3.706 1.566 24.317 7.7 67.491-26.817 23.993-19.182 35.892-44.694 47.465-69.358 12.484-26.752 24.318-52.003 50.066-66.944 10.988-6.395 21.392-7.308 30.885-2.871 27.894 13.18 37.582 69.358 37.972 71.772l.325 2.023-239.6 137.347-3.187 1.892zm-21.327-17.682l19.376 9.983 5.007-35.43-19.506-9.591-4.877 35.038zm29.975-23.033l-4.422 31.385 231.994-132.91c-1.951-10.048-11.964-54.808-34.331-65.379-7.737-3.653-16.06-2.805-25.423 2.61-24.188 14.029-35.566 38.431-47.66 64.335-11.834 25.316-24.058 51.48-49.156 71.511-39.922 31.906-62.42 30.863-71.002 28.448z" fill="#181940"/><path d="M316 306.861s-15.93-94.936-64.5-66.814c-48.571 28.122-46.685 95.719-97.206 136.042-50.456 40.323-71.588 26.686-71.588 26.686l-5.722 41.107L316 306.861z" fill="#181940"/></svg>