<svg width="70" height="70" fill="none" xmlns="http://www.w3.org/2000/svg"><path d="M9.8 7.933h50.4c1.03 0 1.867.836 1.867 1.867v31.733H7.933V9.8c0-1.03.836-1.867 1.867-1.867z" fill="#fff"/><path d="M7.933 41.533h54.134v9.334c0 1.03-.836 1.866-1.867 1.866H9.8a1.867 1.867 0 01-1.867-1.866v-9.334z" fill="#EFEFEF"/><path d="M26.6 19.133a7.466 7.466 0 11-14.934 0 7.467 7.467 0 1114.934 0z" fill="#E8C8AA"/><path d="M26.6 19.133H21a1.867 1.867 0 01-1.867-1.866v-5.6a7.467 7.467 0 017.467 7.466zM14.466 34.067H12.6a.933.933 0 01-.934-.934v-1.866c0-.516.418-.933.934-.933h1.867c.515 0 .933.417.933.933v1.866a.933.933 0 01-.934.934zm41.067-3.733H57.4c.516 0 .933.417.933.933v1.866a.933.933 0 01-.933.934h-1.867a.933.933 0 01-.933-.934v-1.866c0-.516.418-.933.933-.933zm-19.6-16.801h14c.516 0 .934.418.934.934v1.866a.933.933 0 01-.934.934h-14a.933.933 0 01-.933-.934v-1.866c0-.516.418-.934.933-.934zm0 7.467H54.6c.515 0 .933.418.933.933V23.8a.933.933 0 01-.933.933H35.933A.933.933 0 0135 23.8v-1.867c0-.515.418-.933.933-.933z" fill="#E8C8AA"/><path d="M28.467 52.733h13.066v9.334H28.467v-9.334z" fill="#BCBCBC"/><path d="M60.2 7H9.8A2.803 2.803 0 007 9.8v41.067a2.803 2.803 0 002.8 2.8h17.733v7.466h-5.6V63h26.134v-1.867h-5.6v-7.466H60.2a2.803 2.803 0 002.8-2.8V9.8A2.803 2.803 0 0060.2 7zM40.6 61.133H29.4v-7.466h11.2v7.466zm20.533-10.266a.934.934 0 01-.933.933H9.8a.934.934 0 01-.933-.933v-8.4h52.266v8.4zM8.867 40.6V9.8c0-.515.418-.933.933-.933h50.4c.515 0 .933.418.933.933v30.8H8.867z" fill="#181940"/><path d="M36.867 47.133a1.867 1.867 0 11-3.734 0 1.867 1.867 0 013.734 0zm-17.734-19.6a8.4 8.4 0 100-16.8 8.4 8.4 0 00-8.4 8.4 8.41 8.41 0 008.4 8.4zm6.46-9.333H21a.934.934 0 01-.933-.933v-4.592a6.537 6.537 0 015.525 5.525zM18.2 12.675v4.592a2.803 2.803 0 002.8 2.8h4.592a6.53 6.53 0 11-7.392-7.392zm3.733 20.458H29.4V35h-7.467v-1.867zm9.334 0h1.866V35h-1.866v-1.867zm-13.067 0h1.867V35H18.2v-1.867zm13.067 3.734h1.866v1.866h-1.866v-1.866zm-15.867 0h14v1.866h-14v-1.866zm-3.734 0h1.867v1.866h-1.867v-1.866zm4.667-3.734v-1.866a1.87 1.87 0 00-1.866-1.867H12.6a1.87 1.87 0 00-1.867 1.867v1.866A1.87 1.87 0 0012.6 35h1.867a1.87 1.87 0 001.866-1.867zm-1.866 0H12.6v-1.866h1.867v1.866zm7.466-3.733H29.4v1.867h-7.467V29.4zm9.334 0h1.866v1.867h-1.866V29.4zm-13.067 0h1.867v1.867H18.2V29.4zm22.4 3.733h7.467V35H40.6v-1.867zm-3.733 0h1.866V35h-1.866v-1.867zm13.066 0H51.8V35h-1.867v-1.867zm-13.066 3.734h1.866v1.866h-1.866v-1.866zm3.733 0h14v1.866h-14v-1.866zm15.867 0h1.866v1.866h-1.866v-1.866zM57.4 29.4h-1.867a1.87 1.87 0 00-1.867 1.867v1.866A1.87 1.87 0 0055.533 35H57.4a1.87 1.87 0 001.867-1.867v-1.866A1.87 1.87 0 0057.4 29.4zm-1.867 3.733v-1.866H57.4v1.866h-1.867zM40.6 29.4h7.467v1.867H40.6V29.4zm-3.733 0h1.866v1.867h-1.866V29.4zm13.066 0H51.8v1.867h-1.867V29.4zm-14-11.2h14a1.87 1.87 0 001.867-1.867v-1.866a1.87 1.87 0 00-1.867-1.867h-14a1.87 1.87 0 00-1.866 1.867v1.866a1.87 1.87 0 001.866 1.867zm0-3.733h14l.001 1.866h-14v-1.866zM56.467 23.8v-1.867a1.87 1.87 0 00-1.867-1.866H35.933a1.869 1.869 0 00-1.866 1.866V23.8a1.87 1.87 0 001.866 1.867H54.6a1.87 1.87 0 001.867-1.867zm-20.534-1.867H54.6V23.8H35.934v-1.867zm-5.599-7.466H32.2v1.866h-1.867v-1.866zm0 7.466H32.2V23.8h-1.867v-1.867z" fill="#181940"/></svg>