<svg width="76" height="76" fill="none" xmlns="http://www.w3.org/2000/svg"><path d="M54.625 27.313h-33.25v23.75h33.25v-23.75z" fill="#E8C8AA"/><path d="M38 3.563C18.98 3.563 3.562 18.98 3.562 38c0 19.02 15.419 34.438 34.438 34.438 19.02 0 34.438-15.419 34.438-34.438C72.438 18.98 57.019 3.562 38 3.562zm0 59.374a24.938 24.938 0 110-49.875 24.938 24.938 0 010 49.876z" fill="#E8C8AA"/><path d="M41.563 8.313L38 13.063A24.939 24.939 0 0013.062 38l-4.75-3.563L3.563 38C3.563 18.98 18.982 3.562 38 3.562l3.563 4.75zM72.438 38c0 19.02-15.419 34.438-34.438 34.438l-3.563-4.75L38 62.938A24.939 24.939 0 0062.938 38l4.75 3.563L72.438 38z" fill="#E8C8AA"/><path d="M35.625 32.063h-4.75v7.124h4.75v-7.124zm9.5 0h-4.75v7.124h4.75v-7.124z" fill="#fff"/><path d="M34.438 67.688L38 72.438C18.98 72.438 3.562 57.019 3.562 38l4.75-3.563L13.063 38A24.939 24.939 0 0038 62.938l-3.563 4.75z" fill="#E8C8AA"/><path d="M55.813 51.063v-23.75a1.188 1.188 0 00-1.188-1.188h-9.648v-1.336a3.418 3.418 0 00-3.414-3.414h-7.274a3.417 3.417 0 00-3.414 3.414v1.336h-9.5a1.188 1.188 0 00-1.188 1.188v23.75a1.188 1.188 0 001.188 1.187h33.25a1.188 1.188 0 001.188-1.188zm-28.5-14.25h2.375v2.374a1.188 1.188 0 001.187 1.188h4.75a1.188 1.188 0 001.188-1.188v-2.374h2.374v2.374a1.188 1.188 0 001.188 1.188h4.75a1.188 1.188 0 001.188-1.188v-2.374h2.374v8.312H27.314v-8.313zM32.063 38v-4.75h2.374V38h-2.374zm9.5 0v-4.75h2.374V38h-2.374zm7.623-3.563h-2.873v-2.374a1.188 1.188 0 00-1.188-1.188h-4.75a1.188 1.188 0 00-1.188 1.188v2.374h-2.374v-2.374a1.188 1.188 0 00-1.188-1.188h-4.75a1.188 1.188 0 00-1.188 1.188v2.374h-2.873L23.421 28.5H52.58l-3.393 5.938zM24.938 35.94v9.88l-2.375 2.376V31.784l2.375 4.156zm1.679 11.56h22.766l2.375 2.375H24.242l2.375-2.375zm24.445-1.68v-9.88l2.376-4.156v16.412l-2.376-2.375zM33.25 24.79a1.04 1.04 0 011.04-1.04h7.273a1.04 1.04 0 011.039 1.04v1.335H33.25v-1.336z" fill="#181940"/><path d="M38 2.375a35.625 35.625 0 00-13.633 68.54 35.623 35.623 0 0046.551-19.279 35.625 35.625 0 00-7.727-38.827A35.39 35.39 0 0038 2.375zm33.243 35.037l-3.555 2.666-3.57-2.678c-.303-13.359-10.683-24.272-23.82-25.423l2.215-2.952a1.188 1.188 0 000-1.425L40.44 4.838a33.25 33.25 0 0130.802 32.574zM38 61.75c-13.096 0-23.75-10.654-23.75-23.75S24.904 14.25 38 14.25 61.75 24.904 61.75 38 51.096 61.75 38 61.75zM14.489 14.489a33.02 33.02 0 0122.923-9.732l2.666 3.556-2.678 3.57c-13.359.302-24.272 10.682-25.423 23.819l-2.952-2.215a1.188 1.188 0 00-1.425 0L4.838 35.56a33.002 33.002 0 019.65-21.07zm-9.732 24.1l3.556-2.667 3.57 2.678c.302 13.359 10.682 24.272 23.819 25.423l-2.215 2.952a1.187 1.187 0 000 1.425l2.072 2.762A33.25 33.25 0 014.757 38.588zM61.511 61.51a33.02 33.02 0 01-22.923 9.732l-2.666-3.555 2.678-3.57c13.359-.303 24.272-10.683 25.423-23.82l2.952 2.215a1.188 1.188 0 001.425 0l2.762-2.072a33.003 33.003 0 01-9.65 21.07z" fill="#181940"/></svg>