<svg width="628" height="539" fill="none" xmlns="http://www.w3.org/2000/svg"><path d="M495.148 96.158L628 1.6l-12.116 1.477-123.832 88.739 3.096 4.34zM194.556 265.174l2.697 4.606-46.641 27.31-2.697-4.606 46.641-27.31zm237.698-131.905l46.632-27.415-2.704-4.59-43.982 25.849.054 6.156zm-24.852 7.698l2.717 4.595-48.519 28.687-2.717-4.594 48.519-28.688zm-115.953 74.476l46.632-27.806-2.74-4.59-43.643 26.027-.249 6.369zm-70.652 40.954l48.483-29.034-2.74-4.59-45.689 27.38-.054 6.244zM.89 354.316l125.13-44.405-2.776-4.341L.89 348.766v5.55z" fill="#673D15"/><path d="M494.934 94.539L625.153 1.637 615.332 0 490.824 88.74l4.11 5.799zM620.616 2.686l-125.255 89.38-2.064-2.9L615.759 1.868l4.857.818zM150.288 295.412l48.18-28.216-3.594-6.138-48.18 28.216 3.594 6.138zm45.743-28.839l-45.103 26.402-1.797-3.06 45.103-26.402 1.797 3.06zm235.333-134.621l48.732-28.642-3.612-6.138-45.209 26.561.089 8.219zm46.312-29.265l-44.551 26.188-.035-4.11 42.771-25.156 1.815 3.078zM361.3 172.622l50.048-29.586-3.629-6.12-50.049 29.603 3.63 6.103zm47.611-30.227l-46.989 27.789-1.815-3.06 46.989-27.789 1.815 3.06zm-118.423 71.803l48.821-29.105-3.647-6.12-44.818 26.721-.356 8.504zm46.383-29.728l-44.461 26.508.177-4.252 42.47-25.316 1.814 3.06zM219.89 255.116l50.618-30.315-3.648-6.102-46.899 28.091-.071 8.326zm48.18-30.92l-46.366 27.772.036-4.163 44.515-26.651 1.815 3.042zM0 352.715l127.372-45.188-3.736-5.888-.677.231-122.96 43.409v7.436zm124.667-46.131L1.779 350.189v-3.665l121.091-42.75 1.797 2.81z" fill="#181940"/><path d="M484.028 19.819l-12.383 7.418-2.545-1.476 12.366-7.42 2.562 1.477z" fill="#FFD5AD"/><path d="M484.028 19.819l5.96 40.366v58.175l-12.365 7.419-4.27-7.419V65.505l-1.708-38.268 12.383-7.418z" fill="#FFD5AD"/><path d="M480.825 30.546l5.961 40.385v58.157l-12.366 7.419-4.27-7.419V76.232l-1.708-38.267 12.383-7.419z" fill="#FFD5AD"/><path d="M477.303 127.007l13.575-8.148V60.185l-6.032-40.936-.818-.48-13.29 7.97 1.725 38.801v53.052l4.84 8.415zm11.796-9.163l-11.156 6.69-3.7-6.423V65.505l-1.691-37.787 10.782-6.458 5.765 39.068v57.516z" fill="#181940"/><path d="M470.738 90.554v-8.22l-1.637-.942V25.76l2.562 1.476 5.96 40.385v28.767c-1.103-.107-1.868.712-1.868 2.188 0 1.477.765 3.167 1.868 4.341v3.754c-2.437-.783-4.27.676-4.27 3.683 0 3.006 1.815 6.564 4.27 8.592v6.832l-5.32 5.622-3.202-1.85V89.593l1.637.96z" fill="#181940"/><path d="M468.211 81.89V25.245l13.255-7.953 3.06 1.762-11.903 8.628 5.889 39.922V97.35l-.96-.09c-.249-.017-.41.036-.552.161-.231.196-.356.623-.356 1.139 0 1.191.659 2.704 1.637 3.736l.249.249v5.319l-1.156-.374c-.587-.195-1.441-.302-2.1.178-.64.463-.996 1.406-.996 2.651 0 2.686 1.655 6.013 3.95 7.917l.32.267v7.596l-6.049 6.387-4.252-2.455V88.063l1.636.943v-6.173l-1.672-.943zm13.255-62.516l-10.622 6.369.801.462 10.622-6.369-.801-.462zM469.99 80.876l1.637.943v10.265l-1.637-.943v37.894l2.135 1.245 4.608-4.857v-6.066c-2.526-2.278-4.27-5.925-4.27-9.002 0-1.833.605-3.274 1.726-4.092.712-.516 1.566-.747 2.526-.676v-2.331c-1.138-1.352-1.868-3.149-1.868-4.679 0-1.05.321-1.903.926-2.455.266-.249.587-.427.942-.534V67.746l-5.906-39.957-.463-.267-.391-.231v53.585h.035z" fill="#181940"/><path d="M414.053 59.527l-12.366 7.419-2.562-1.477 12.383-7.418 2.545 1.476zm0 0l5.978 40.385v58.157l-12.383 7.419-4.253-7.419v-52.838l-1.708-38.285 12.366-7.419z" fill="#FFD5AD"/><path d="M410.85 68.796l5.978 40.367v58.175l-13.433-1.85-3.202 1.85v-52.856l-1.708-38.267 12.365-7.419z" fill="#FFD5AD"/><path d="M407.327 166.733l13.576-8.148V99.912l-6.032-40.936-.818-.48-13.291 7.97 1.726 38.801v53.051l4.839 8.415zm11.814-9.162l-11.155 6.689-3.701-6.422v-52.607l-1.69-37.787 10.782-6.458 5.764 39.068v57.517z" fill="#181940"/><path d="M400.762 130.263v-8.22l-1.637-.943V65.47l2.562 1.476 5.961 40.385v28.767c-1.103-.107-1.868.711-1.868 2.188 0 1.459.765 3.167 1.868 4.341v3.754c-2.438-.783-4.27.676-4.27 3.682 0 3.007 1.814 6.565 4.27 8.593v6.832l-5.32 5.622-3.203-1.851V129.32l1.637.943z" fill="#181940"/><path d="M398.236 121.616V64.971l13.255-7.952 3.06 1.761-11.903 8.629 5.889 39.921v29.746l-.961-.089c-.249-.018-.409.036-.551.16-.231.196-.356.623-.356 1.139 0 1.192.658 2.704 1.637 3.736l.249.249v5.319l-1.157-.373c-.587-.196-1.441-.303-2.099.178-.641.462-.996 1.405-.996 2.651 0 2.686 1.654 6.013 3.949 7.916l.321.267v7.597l-6.05 6.387-4.252-2.456v-41.985l1.637.943v-6.174l-1.672-.925zm13.272-62.533l-10.621 6.368.8.463 10.622-6.369-.801-.462zm-11.493 61.501l1.637.943v10.265l-1.637-.942v37.893l2.135 1.246 4.608-4.857v-6.067c-2.527-2.277-4.27-5.924-4.27-9.002 0-1.832.605-3.273 1.726-4.091.711-.516 1.565-.748 2.526-.677v-2.33c-1.139-1.352-1.868-3.149-1.868-4.679 0-1.05.32-1.904.925-2.455a2.37 2.37 0 01.943-.534v-27.842l-5.907-39.958-.462-.266-.392-.232v53.585h.036z" fill="#181940"/><path d="M404.819 153.657v64.313c0 17.185 3.042 34.229 9.002 50.347a145.543 145.543 0 019.003 50.347v54.368l86.504-49.92v-54.368a145.12 145.12 0 00-9.003-50.347 145.571 145.571 0 01-9.002-50.348v-64.312l-86.504 49.92z" fill="#FFD5AD"/><path d="M421.917 374.58l88.283-50.952v-54.884c0-17.346-3.042-34.389-9.056-50.668-5.925-16.064-8.949-32.912-8.949-50.044v-65.843l-88.284 50.952v64.829c0 17.345 3.043 34.389 9.056 50.667 5.925 16.083 8.95 32.913 8.95 50.045v55.898zm86.486-51.984l-84.725 48.906v-52.82c0-17.346-3.042-34.389-9.056-50.668-5.925-16.082-8.949-32.912-8.949-50.044v-63.797l84.742-48.906v62.765c0 17.345 3.043 34.389 9.056 50.667 5.925 16.065 8.95 32.913 8.95 50.045v53.852h-.018z" fill="#181940"/><path d="M416.881 171.305c4.911-2.846 8.896-9.731 8.896-15.406a9.59 9.59 0 00-.373-2.722l44.284-25.441c-.409 1.423-.641 2.847-.641 4.217 0 5.675 3.986 7.97 8.896 5.141 1.352-.783 2.616-1.868 3.772-3.149v39.584c0 16.777 2.971 33.428 8.789 49.191a141.896 141.896 0 018.789 49.191v32.628c-.302.142-.587.284-.889.462-4.911 2.847-8.896 9.732-8.896 15.407 0 .96.124 1.814.338 2.562l-44.925 25.778c.712-1.886 1.121-3.825 1.121-5.64 0-5.675-3.985-7.97-8.896-5.141-1.725.996-3.344 2.508-4.714 4.288v-31.988c0-16.776-2.972-33.428-8.79-49.191a141.892 141.892 0 01-8.789-49.191v-39.69a9.802 9.802 0 002.028-.89z" fill="#FFD5AD"/><path d="M413.892 178.226c4.911-2.829 8.896-9.732 8.896-15.407a9.596 9.596 0 00-.373-2.722l44.302-25.423c-.41 1.424-.641 2.847-.641 4.217 0 5.675 3.985 7.97 8.896 5.141 1.352-.783 2.615-1.868 3.772-3.149v39.584c0 16.777 2.971 33.429 8.789 49.191a141.9 141.9 0 018.789 49.191v32.628c-.302.142-.587.284-.889.462-4.911 2.847-8.896 9.732-8.896 15.407 0 .961.124 1.815.338 2.562l-44.925 25.778c.712-1.886 1.121-3.825 1.121-5.639 0-5.676-3.985-7.97-8.896-5.142-1.726.996-3.345 2.509-4.715 4.288v-31.988a142.04 142.04 0 00-8.789-49.19 141.9 141.9 0 01-8.789-49.191v-39.709c.623-.195 1.299-.48 2.01-.889z" fill="#FFD5AD"/><path d="M443.178 350.758l47.682-27.361-.196-.677a8.816 8.816 0 01-.302-2.33c0-5.391 3.79-11.955 8.451-14.642.285-.16.552-.302.836-.427l.516-.231v-33.197c0-16.937-2.971-33.589-8.842-49.493a140.638 140.638 0 01-8.736-48.871v-41.914l-1.548 1.743c-1.139 1.263-2.331 2.259-3.541 2.971-2.081 1.21-4.003 1.423-5.408.623-1.388-.801-2.153-2.58-2.153-4.999 0-1.228.213-2.562.605-3.968l.605-2.117-46.829 26.864.214.676c.231.729.338 1.565.338 2.473 0 5.39-3.79 11.955-8.451 14.641a9.068 9.068 0 01-1.868.819l-.623.195v40.367a142.44 142.44 0 008.843 49.493 140.566 140.566 0 018.735 48.871v34.603l1.602-2.082c1.352-1.761 2.9-3.166 4.448-4.074 2.081-1.21 4.003-1.423 5.408-.622 1.388.8 2.153 2.579 2.153 4.981 0 1.637-.373 3.487-1.067 5.319l-.872 2.366zm45.618-28.233l-42.38 24.319c.32-1.298.48-2.561.48-3.736 0-3.077-1.085-5.39-3.042-6.529-1.975-1.138-4.519-.907-7.188.623-1.156.676-2.313 1.583-3.38 2.686v-29.603c0-16.954-2.972-33.589-8.843-49.493a140.638 140.638 0 01-8.736-48.871v-39.086a10.82 10.82 0 001.601-.765c5.16-2.971 9.341-10.229 9.341-16.189 0-.819-.071-1.584-.231-2.295l41.953-24.053a14.563 14.563 0 00-.213 2.42c0 3.077 1.085 5.39 3.042 6.529 1.975 1.138 4.519.907 7.188-.623a14.623 14.623 0 002.438-1.779v37.431c0 16.937 2.971 33.589 8.842 49.494a140.558 140.558 0 018.736 48.87v32.076a5.861 5.861 0 00-.445.25c-5.16 2.971-9.341 10.229-9.341 16.189-.017.765.054 1.477.178 2.135z" fill="#181940"/><path d="M451.715 275.249c-8.759-1.696-13.477-15.373-10.538-30.547 2.94-15.174 12.425-26.1 21.184-24.403 8.76 1.697 13.478 15.374 10.538 30.548-2.939 15.174-12.424 26.099-21.184 24.402z" fill="#FFD5AD"/><path d="M454.992 271.11c3.949 0 8.006-2.206 11.618-6.351 8.451-9.732 11.903-27.54 7.686-39.726-2.1-6.085-5.765-9.91-10.337-10.799-4.573-.89-9.394 1.298-13.611 6.155-8.451 9.732-11.903 27.54-7.686 39.727 2.099 6.084 5.764 9.927 10.337 10.798a9.306 9.306 0 001.993.196zm6.992-55.275a8.68 8.68 0 011.655.16c3.914.765 7.098 4.181 8.984 9.642 4.021 11.636.712 28.679-7.348 37.965-3.789 4.359-8.024 6.334-11.938 5.587-3.914-.765-7.099-4.181-8.985-9.643-4.021-11.635-.712-28.678 7.348-37.983 3.256-3.753 6.85-5.728 10.284-5.728z" fill="#181940"/><path d="M452.999 283.83c5.124 0 10.408-2.864 15.105-8.29 11.085-12.756 15.604-36.133 10.088-52.109-2.74-7.916-7.49-12.916-13.415-14.054-5.924-1.157-12.187 1.708-17.685 8.041-11.084 12.756-15.603 36.133-10.088 52.109 2.74 7.916 7.491 12.916 13.415 14.054.836.16 1.708.249 2.58.249zm9.216-72.923c.747 0 1.495.071 2.242.213 5.266 1.014 9.554 5.604 12.063 12.898 5.337 15.443.961 38.037-9.75 50.365-5.053 5.836-10.746 8.486-16.013 7.455-5.266-1.014-9.554-5.604-12.063-12.898-5.319-15.443-.943-38.037 9.75-50.365 4.342-5.017 9.163-7.668 13.771-7.668z" fill="#fff"/><path d="M453.889 279.934c5.124 0 10.408-2.864 15.105-8.29 11.084-12.756 15.603-36.133 10.088-52.109-2.74-7.917-7.49-12.916-13.415-14.054-5.925-1.157-12.188 1.708-17.685 8.041-11.085 12.756-15.604 36.133-10.088 52.109 2.74 7.916 7.49 12.915 13.415 14.054.836.16 1.708.249 2.58.249zm9.216-72.923c.747 0 1.494.071 2.242.213 5.266 1.014 9.554 5.604 12.063 12.898 5.337 15.443.96 38.037-9.75 50.365-5.053 5.836-10.747 8.486-16.013 7.455-5.266-1.014-9.554-5.604-12.063-12.899-5.32-15.442-.943-38.036 9.75-50.365 4.341-5.017 9.163-7.667 13.771-7.667z" fill="#181940"/><path d="M343.205 102.029l-12.383 7.418-2.544-1.476 12.365-7.419 2.562 1.477z" fill="#FFD5AD"/><path d="M343.205 102.028l5.961 40.385v58.157l-12.366 7.419-4.27-7.419v-52.855l-1.708-38.268 12.383-7.419z" fill="#FFD5AD"/><path d="M340.003 112.756l5.96 40.385v58.157l-12.365 7.419-4.27-7.419v-52.856l-1.709-38.267 12.384-7.419z" fill="#FFD5AD"/><path d="M336.48 209.217l13.575-8.149v-58.655l-6.031-40.936-.819-.48-13.29 7.97 1.726 38.801v53.051l4.839 8.398zm11.796-9.145l-11.156 6.689-3.7-6.422v-52.624l-1.691-37.787 10.782-6.458 5.765 39.068v57.534z" fill="#181940"/><path d="M329.915 172.764v-8.219l-1.637-.943v-55.631l2.562 1.476 5.96 40.385v28.767c-1.103-.107-1.868.712-1.868 2.188 0 1.459.765 3.167 1.868 4.341v3.754c-2.437-.783-4.252.676-4.252 3.683 0 3.006 1.815 6.564 4.252 8.593v6.831l-5.319 5.622-3.203-1.85v-39.94l1.637.943z" fill="#181940"/><path d="M327.388 164.1v-56.627l13.255-7.953 3.06 1.761-11.902 8.629 5.889 39.922v29.746l-.961-.089c-.249-.018-.409.035-.552.16-.231.195-.355.622-.355 1.138 0 1.192.658 2.705 1.636 3.736l.249.249v5.32l-1.156-.374c-.587-.195-1.441-.302-2.099.178-.641.463-.997 1.406-.997 2.651 0 2.686 1.655 6.013 3.95 7.917l.32.267v7.596l-6.049 6.387-4.252-2.455v-41.986l1.637.943v-6.173l-1.673-.943zm13.255-62.516l-10.622 6.369.801.462 10.622-6.369-.801-.462zm-11.476 61.502l1.637.943v10.265l-1.637-.943v37.894l2.135 1.245 4.608-4.857v-6.066c-2.526-2.277-4.27-5.925-4.27-9.002 0-1.833.605-3.274 1.726-4.092.712-.516 1.566-.747 2.527-.676v-2.331c-1.139-1.352-1.868-3.149-1.868-4.679 0-1.049.32-1.903.925-2.455.267-.249.587-.427.943-.533v-27.843l-5.907-39.957-.463-.267-.391-.231v53.585h.035z" fill="#181940"/><path d="M273.229 141.737l-12.365 7.437-2.562-1.477 12.383-7.437 2.544 1.477zm.001 0l5.978 40.385v58.175l-12.383 7.418-4.253-7.436v-52.838l-1.708-38.267 12.366-7.437z" fill="#FFD5AD"/><path d="M270.027 151.006l5.978 40.385v58.157l-13.433-1.832-3.202 1.832v-52.856l-1.708-38.267 12.365-7.419z" fill="#FFD5AD"/><path d="M266.522 248.943l13.575-8.148v-58.673l-6.031-40.936-.818-.481-13.291 7.97 1.726 38.802v53.051l4.839 8.415zm11.796-9.162l-11.155 6.689-3.701-6.422v-52.607l-1.69-37.787 10.782-6.458 5.764 39.068v57.517z" fill="#181940"/><path d="M259.957 212.472v-8.219l-1.637-.943v-55.613l2.562 1.477 5.96 40.384v28.767c-1.103-.106-1.868.712-1.868 2.189 0 1.459.765 3.166 1.868 4.341v3.753c-2.437-.782-4.252.676-4.252 3.683 0 3.007 1.815 6.565 4.252 8.593v6.831l-5.319 5.622-3.203-1.85v-39.958l1.637.943z" fill="#181940"/><path d="M257.413 203.826v-56.645l13.255-7.952 3.06 1.761-11.903 8.628 5.889 39.922v29.746l-.96-.089c-.249-.018-.41.036-.552.16-.231.196-.356.623-.356 1.139 0 1.192.658 2.704 1.637 3.736l.249.249v5.319l-1.156-.373c-.587-.196-1.441-.303-2.1.178-.64.462-.996 1.405-.996 2.65 0 2.687 1.655 6.014 3.95 7.917l.32.267v7.597l-6.049 6.386-4.253-2.455v-42.003l1.637.943v-6.173l-1.672-.908zm13.273-62.534l-10.622 6.369.8.463 10.622-6.369-.8-.463zm-11.494 61.502l1.637.943v10.265l-1.637-.943v37.894l2.135 1.246 4.608-4.857v-6.067c-2.526-2.277-4.27-5.924-4.27-9.002 0-1.832.605-3.273 1.726-4.092.712-.515 1.566-.747 2.526-.676v-2.33c-1.138-1.352-1.868-3.149-1.868-4.679 0-1.05.32-1.904.925-2.455.267-.249.588-.427.943-.534v-27.842l-5.907-39.958-.462-.266-.392-.232v53.585h.036z" fill="#181940"/><path d="M263.996 235.867v64.313c0 17.185 3.042 34.229 9.003 50.347a145.566 145.566 0 019.002 50.347v54.368l86.504-49.92v-54.368c0-17.186-3.042-34.229-9.002-50.347a145.549 145.549 0 01-9.003-50.348v-64.312l-86.504 49.92z" fill="#FFD5AD"/><path d="M281.094 456.79l88.283-50.952v-54.884c0-17.346-3.042-34.389-9.056-50.668-5.925-16.064-8.949-32.912-8.949-50.044v-65.861l-88.284 50.952v64.829c0 17.346 3.043 34.389 9.057 50.667a143.913 143.913 0 018.949 50.045v55.916zm86.504-51.984l-84.725 48.906v-52.82c0-17.346-3.042-34.389-9.056-50.667-5.925-16.083-8.949-32.913-8.949-50.045v-63.797l84.725-48.906v62.765a145.72 145.72 0 009.056 50.667c5.924 16.065 8.949 32.913 8.949 50.045v53.852z" fill="#181940"/><path d="M276.059 253.515c4.91-2.846 8.896-9.731 8.896-15.406 0-1.032-.143-1.94-.374-2.722l44.302-25.423c-.409 1.423-.641 2.846-.641 4.216 0 5.675 3.986 7.97 8.896 5.142 1.352-.783 2.616-1.868 3.772-3.149v39.584a142.05 142.05 0 008.789 49.191 141.892 141.892 0 018.79 49.19v32.628c-.303.143-.588.285-.89.463-4.911 2.846-8.896 9.731-8.896 15.406 0 .961.125 1.815.338 2.562l-44.924 25.779c.711-1.886 1.12-3.825 1.12-5.64 0-5.675-3.985-7.97-8.896-5.141-1.725.996-3.344 2.508-4.714 4.287v-31.987c0-16.777-2.972-33.429-8.79-49.191a141.924 141.924 0 01-8.789-49.191v-39.708a10.151 10.151 0 002.011-.89z" fill="#FFD5AD"/><path d="M273.07 260.436c4.91-2.847 8.896-9.732 8.896-15.407a9.594 9.594 0 00-.374-2.722l44.302-25.423c-.409 1.424-.641 2.847-.641 4.217 0 5.675 3.986 7.97 8.896 5.141 1.352-.783 2.616-1.868 3.772-3.149v39.584c0 16.777 2.971 33.429 8.789 49.191a141.901 141.901 0 018.79 49.191v32.628c-.303.142-.588.284-.89.462-4.911 2.829-8.896 9.732-8.896 15.407 0 .96.125 1.814.338 2.562l-44.924 25.778c.711-1.886 1.12-3.825 1.12-5.639 0-5.676-3.985-7.971-8.895-5.142-1.726.996-3.345 2.509-4.715 4.288v-31.988c0-16.776-2.972-33.428-8.79-49.191a141.914 141.914 0 01-8.789-49.19v-39.709c.623-.196 1.299-.48 2.011-.889z" fill="#FFD5AD"/><path d="M302.355 432.968l47.682-27.362-.195-.676a8.774 8.774 0 01-.303-2.33c0-5.391 3.79-11.955 8.451-14.642.285-.16.552-.302.837-.427l.516-.231v-33.197c0-16.937-2.972-33.589-8.843-49.494a140.632 140.632 0 01-8.736-48.87v-41.915l-1.548 1.744c-1.138 1.263-2.331 2.259-3.54 2.971-2.082 1.21-4.004 1.423-5.409.623-1.388-.801-2.153-2.58-2.153-5 0-1.227.214-2.561.605-3.967l.605-2.117-46.828 26.864.213.676c.231.729.338 1.565.338 2.473 0 5.39-3.789 11.955-8.451 14.641a9.068 9.068 0 01-1.868.819l-.623.195v40.367a142.44 142.44 0 008.843 49.493 140.567 140.567 0 018.736 48.871v34.603l1.601-2.082c1.352-1.761 2.9-3.167 4.448-4.074 2.082-1.21 4.003-1.423 5.409-.623 1.387.801 2.152 2.58 2.152 4.982 0 1.636-.373 3.487-1.067 5.319l-.872 2.366zm45.619-28.216l-42.381 24.32c.32-1.299.481-2.562.481-3.736 0-3.078-1.086-5.39-3.043-6.529-1.975-1.139-4.519-.907-7.188.623-1.156.676-2.313 1.583-3.38 2.686v-29.603c0-16.955-2.971-33.589-8.843-49.494a140.632 140.632 0 01-8.736-48.87v-39.068a11.085 11.085 0 001.602-.765c5.159-2.971 9.34-10.23 9.34-16.19 0-.818-.071-1.583-.231-2.295l41.936-24.07a14.45 14.45 0 00-.214 2.419c0 3.078 1.085 5.391 3.043 6.529 1.974 1.139 4.519.908 7.187-.622a14.695 14.695 0 002.438-1.779v37.431c0 16.936 2.971 33.588 8.843 49.493a140.562 140.562 0 018.735 48.871v32.076c-.142.071-.302.16-.444.249-5.16 2.971-9.341 10.23-9.341 16.19 0 .747.071 1.458.196 2.134z" fill="#181940"/><path d="M310.885 357.46c-8.76-1.697-13.478-15.374-10.538-30.548 2.94-15.174 12.425-26.099 21.184-24.403 8.76 1.697 13.478 15.374 10.538 30.548-2.94 15.174-12.424 26.1-21.184 24.403z" fill="#FFD5AD"/><path d="M314.169 353.338c3.95 0 8.006-2.206 11.618-6.351 8.451-9.732 11.903-27.54 7.686-39.727-2.099-6.084-5.764-9.909-10.337-10.799-4.572-.889-9.394 1.299-13.611 6.156-8.451 9.731-11.902 27.54-7.686 39.726 2.1 6.085 5.765 9.927 10.337 10.799.659.125 1.335.196 1.993.196zm6.992-55.293c.552 0 1.103.053 1.655.16 3.914.765 7.099 4.181 8.985 9.642 4.021 11.635.712 28.679-7.348 37.965-3.79 4.359-8.024 6.334-11.939 5.587-3.914-.765-7.099-4.181-8.984-9.643-4.021-11.635-.712-28.678 7.348-37.983 3.256-3.736 6.849-5.728 10.283-5.728z" fill="#181940"/><path d="M312.176 366.04c5.124 0 10.409-2.864 15.106-8.29 11.084-12.756 15.603-36.133 10.088-52.108-2.74-7.917-7.491-12.916-13.415-14.055-5.925-1.156-12.188 1.708-17.686 8.041-11.084 12.756-15.603 36.133-10.088 52.109 2.74 7.917 7.491 12.916 13.415 14.054.854.16 1.709.249 2.58.249zm9.216-72.923c.748 0 1.495.071 2.242.214 5.267 1.014 9.555 5.604 12.063 12.898 5.338 15.442.961 38.036-9.75 50.365-5.053 5.835-10.746 8.486-16.012 7.454-5.267-1.014-9.555-5.604-12.063-12.898-5.32-15.442-.943-38.036 9.75-50.365 4.341-5.017 9.162-7.668 13.77-7.668z" fill="#fff"/><path d="M313.066 362.144c5.124 0 10.408-2.864 15.105-8.29 11.085-12.756 15.604-36.133 10.088-52.109-2.74-7.916-7.49-12.916-13.415-14.054-5.925-1.157-12.187 1.708-17.685 8.041-11.084 12.756-15.603 36.133-10.088 52.109 2.74 7.916 7.49 12.916 13.415 14.054.854.178 1.708.249 2.58.249zm9.216-72.923c.747 0 1.495.071 2.242.213 5.266 1.014 9.554 5.604 12.063 12.898 5.337 15.443.961 38.037-9.75 50.365-5.053 5.836-10.746 8.486-16.013 7.455-5.266-1.014-9.554-5.604-12.063-12.898-5.319-15.443-.943-38.037 9.75-50.365 4.341-5 9.163-7.668 13.771-7.668z" fill="#181940"/><path d="M202.383 184.239l-12.366 7.418-2.562-1.476 12.366-7.419 2.562 1.477z" fill="#FFD5AD"/><path d="M202.383 184.239l5.96 40.384v58.157l-12.365 7.419-4.27-7.419v-52.855l-1.691-38.268 12.366-7.418z" fill="#FFD5AD"/><path d="M199.18 194.966l5.96 40.385v58.157l-12.365 7.437-4.27-7.437V240.67l-1.69-38.285 12.365-7.419z" fill="#FFD5AD"/><path d="M195.657 291.427l13.575-8.148v-58.674l-6.031-40.936-.818-.48-13.291 7.97 1.726 38.801v53.052l4.839 8.415zm11.796-9.145l-11.155 6.69-3.701-6.423v-52.606l-1.69-37.787 10.782-6.458 5.764 39.068v57.516z" fill="#181940"/><path d="M189.092 254.974v-8.219l-1.637-.943v-55.631l2.562 1.476 5.96 40.385v28.767c-1.103-.106-1.868.712-1.868 2.188 0 1.459.765 3.167 1.868 4.341v3.754c-2.437-.783-4.252.676-4.252 3.683 0 3.006 1.815 6.565 4.252 8.593v6.831l-5.319 5.622-3.203-1.85v-39.958l1.637.961z" fill="#181940"/><path d="M186.566 246.328v-56.645l13.254-7.953 3.061 1.762-11.903 8.628 5.889 39.922v29.746l-.961-.089c-.249-.018-.409.035-.551.16-.232.196-.356.623-.356 1.139 0 1.192.658 2.704 1.637 3.736l.249.249v5.319l-1.157-.374c-.587-.195-1.441-.302-2.099.178-.641.463-.996 1.406-.996 2.651 0 2.686 1.654 6.013 3.949 7.917l.321.267v7.596l-6.05 6.387-4.252-2.455v-42.003l1.637.942v-6.173l-1.672-.907zm13.272-62.534l-10.621 6.369.8.463 10.622-6.369-.801-.463zm-11.493 61.502l1.637.943v10.265l-1.637-.943v37.894l2.135 1.245 4.608-4.857v-6.066c-2.527-2.277-4.27-5.924-4.27-9.002 0-1.833.605-3.274 1.726-4.092.711-.516 1.565-.747 2.526-.676v-2.331c-1.139-1.352-1.868-3.148-1.868-4.678 0-1.05.32-1.904.925-2.456.267-.249.587-.427.943-.533v-27.842l-5.907-39.958-.462-.267-.392-.231v53.585h.036z" fill="#181940"/><path d="M132.425 223.965l-12.383 7.419-2.545-1.477 12.366-7.419 2.562 1.477zm0 0l5.96 40.367v58.175l-12.365 7.418-4.27-7.418v-52.856l-1.708-38.267 12.383-7.419z" fill="#FFD5AD"/><path d="M129.222 233.216l5.961 40.385v58.157l-13.433-1.832-3.203 1.832v-52.856l-1.708-38.267 12.383-7.419z" fill="#FFD5AD"/><path d="M125.7 331.153l13.575-8.148v-58.673l-6.032-40.936-.818-.481-13.291 7.971 1.726 38.801v53.051l4.84 8.415zm11.796-9.162l-11.156 6.689-3.701-6.422v-52.607l-1.69-37.787 10.782-6.458 5.765 39.068v57.517z" fill="#181940"/><path d="M119.134 294.7v-8.219l-1.637-.943v-55.631l2.562 1.477 5.961 40.384v28.768c-1.104-.107-1.869.711-1.869 2.188 0 1.476.765 3.167 1.869 4.341v3.754c-2.438-.783-4.253.676-4.253 3.682 0 3.007 1.815 6.565 4.253 8.593v6.832l-5.32 5.621-3.203-1.85V293.74l1.637.96z" fill="#181940"/><path d="M116.608 286.036v-56.645l13.255-7.952 3.06 1.761-11.903 8.629 5.889 39.921v29.746l-.961-.089c-.249-.017-.409.036-.551.16-.231.196-.356.623-.356 1.139 0 1.192.658 2.704 1.637 3.736l.249.249v5.319l-1.156-.373c-.588-.196-1.442-.303-2.1.178-.64.462-.996 1.405-.996 2.651 0 2.686 1.654 6.013 3.95 7.916l.32.267v7.597l-6.049 6.387-4.253-2.456v-42.003l1.637.943v-6.173l-1.672-.908zm13.255-62.516l-10.622 6.369.801.463 10.621-6.369-.8-.463zm-11.476 61.502l1.637.943v10.265l-1.637-.943v37.894l2.135 1.246 4.608-4.857v-6.067c-2.526-2.277-4.27-5.924-4.27-9.002 0-1.832.605-3.273 1.726-4.092.711-.516 1.565-.747 2.526-.676v-2.33c-1.138-1.352-1.868-3.149-1.868-4.679 0-1.05.32-1.904.925-2.455a2.37 2.37 0 01.943-.534v-27.842l-5.907-39.958-.462-.267-.392-.231v53.585h.036z" fill="#181940"/><path d="M123.173 318.095v64.313c0 17.185 3.043 34.229 9.003 50.347a145.563 145.563 0 019.003 50.347v54.368l86.504-49.92v-54.368c0-17.186-3.043-34.229-9.003-50.347a145.549 145.549 0 01-9.003-50.348v-64.312l-86.504 49.92z" fill="#FFD5AD"/><path d="M140.271 539l88.283-50.952v-54.884c0-17.346-3.042-34.389-9.056-50.667a143.84 143.84 0 01-8.949-50.045v-65.861l-88.283 50.952v64.829c0 17.346 3.042 34.389 9.056 50.667 5.925 16.083 8.949 32.913 8.949 50.045V539zm86.504-51.966L142.05 535.94v-52.82c0-17.346-3.042-34.389-9.056-50.668-5.924-16.082-8.949-32.912-8.949-50.044v-63.797l84.725-48.906v62.765a145.72 145.72 0 009.056 50.667c5.925 16.065 8.949 32.912 8.949 50.045v53.852z" fill="#181940"/><path d="M135.236 335.725c4.911-2.829 8.896-9.731 8.896-15.406 0-1.032-.142-1.94-.374-2.722l44.302-25.423c-.409 1.423-.64 2.846-.64 4.216 0 5.676 3.985 7.97 8.896 5.142 1.352-.783 2.615-1.868 3.771-3.149v39.584c0 16.776 2.972 33.428 8.79 49.191a141.89 141.89 0 018.789 49.19v32.628a10.81 10.81 0 00-.89.463c-4.91 2.846-8.896 9.731-8.896 15.406 0 .961.125 1.815.338 2.562l-44.924 25.779c.711-1.886 1.121-3.825 1.121-5.64 0-5.675-3.986-7.97-8.896-5.141-1.726.996-3.345 2.508-4.715 4.287v-31.987c0-16.777-2.971-33.429-8.789-49.191a141.9 141.9 0 01-8.789-49.191v-39.708c.622-.178 1.298-.481 2.01-.89z" fill="#FFD5AD"/><path d="M132.247 342.646c4.91-2.847 8.896-9.732 8.896-15.407a9.558 9.558 0 00-.374-2.722l44.302-25.423c-.409 1.424-.64 2.847-.64 4.217 0 5.675 3.985 7.97 8.895 5.141 1.353-.783 2.616-1.868 3.772-3.149v39.584c0 16.777 2.972 33.429 8.79 49.191a141.9 141.9 0 018.789 49.191v32.628c-.303.142-.587.284-.89.462-4.91 2.847-8.896 9.732-8.896 15.407 0 .961.125 1.815.338 2.562l-44.924 25.778c.711-1.886 1.121-3.825 1.121-5.639 0-5.676-3.986-7.97-8.896-5.142-1.726.997-3.345 2.509-4.715 4.288v-31.988a142.05 142.05 0 00-8.789-49.191 141.892 141.892 0 01-8.79-49.19v-39.709c.623-.196 1.299-.48 2.011-.889z" fill="#FFD5AD"/><path d="M161.55 515.196l47.682-27.362-.195-.676a8.774 8.774 0 01-.303-2.33c0-5.391 3.79-11.955 8.451-14.642.285-.16.552-.302.837-.427l.516-.231v-33.197c0-16.937-2.972-33.589-8.843-49.494a140.632 140.632 0 01-8.736-48.87v-41.915l-1.548 1.744c-1.138 1.263-2.33 2.259-3.54 2.971-2.082 1.21-4.003 1.423-5.409.622-1.388-.8-2.153-2.579-2.153-4.999 0-1.227.214-2.562.605-3.967l.605-2.117-46.828 26.864.213.676c.232.729.338 1.565.338 2.473 0 5.39-3.789 11.955-8.451 14.641a9.068 9.068 0 01-1.868.819l-.623.195v40.367a142.44 142.44 0 008.843 49.493 140.567 140.567 0 018.736 48.871v34.603l1.601-2.082c1.352-1.761 2.9-3.167 4.448-4.074 2.082-1.21 4.003-1.423 5.409-.623 1.387.801 2.152 2.58 2.152 4.982 0 1.636-.373 3.487-1.067 5.319l-.872 2.366zm45.619-28.233l-42.381 24.319c.32-1.298.481-2.562.481-3.736 0-3.077-1.086-5.39-3.043-6.529-1.975-1.138-4.519-.907-7.188.623-1.156.676-2.313 1.583-3.38 2.686v-29.603c0-16.955-2.971-33.589-8.843-49.494a140.632 140.632 0 01-8.736-48.87v-39.068a11.085 11.085 0 001.602-.765c5.159-2.971 9.34-10.23 9.34-16.19 0-.818-.071-1.583-.231-2.295l41.936-24.07a14.45 14.45 0 00-.214 2.419c0 3.078 1.085 5.391 3.043 6.529 1.974 1.139 4.519.908 7.188-.622a14.73 14.73 0 002.437-1.779v37.431a142.44 142.44 0 008.843 49.493 140.566 140.566 0 018.735 48.871v32.076c-.142.071-.302.16-.444.249-5.16 2.971-9.341 10.23-9.341 16.19a9.213 9.213 0 00.196 2.135z" fill="#181940"/><path d="M170.052 439.666c-8.76-1.697-13.478-15.374-10.538-30.548 2.94-15.174 12.424-26.099 21.184-24.402 8.76 1.697 13.478 15.373 10.538 30.547-2.94 15.174-12.424 26.1-21.184 24.403z" fill="#FFD5AD"/><path d="M173.346 435.548c3.95 0 8.007-2.206 11.618-6.351 8.451-9.732 11.903-27.54 7.686-39.727-2.099-6.084-5.764-9.909-10.337-10.799-4.572-.889-9.394 1.299-13.61 6.156-8.452 9.731-11.903 27.54-7.687 39.726 2.1 6.085 5.765 9.927 10.337 10.799.659.125 1.335.196 1.993.196zm6.992-55.293c.552 0 1.103.053 1.655.16 3.914.765 7.099 4.181 8.985 9.642 4.021 11.635.712 28.679-7.348 37.965-3.79 4.359-8.024 6.334-11.938 5.587-3.915-.765-7.099-4.181-8.985-9.643-4.021-11.635-.712-28.678 7.348-37.983 3.256-3.736 6.85-5.728 10.283-5.728z" fill="#181940"/><path d="M171.353 448.25c5.125 0 10.409-2.864 15.106-8.29 11.084-12.756 15.603-36.132 10.088-52.108-2.74-7.917-7.491-12.916-13.415-14.055-5.925-1.156-12.188 1.708-17.685 8.041-11.085 12.756-15.604 36.133-10.088 52.109 2.74 7.917 7.49 12.916 13.415 14.054.854.178 1.708.249 2.579.249zm9.217-72.923c.747 0 1.494.071 2.241.214 5.267 1.014 9.555 5.604 12.063 12.898 5.338 15.442.961 38.036-9.75 50.365-5.052 5.835-10.746 8.486-16.012 7.454-5.267-1.014-9.555-5.604-12.063-12.898-5.32-15.442-.943-38.036 9.75-50.365 4.341-4.999 9.163-7.668 13.771-7.668z" fill="#fff"/><path d="M172.243 444.354c5.124 0 10.408-2.864 15.105-8.29 11.085-12.756 15.604-36.133 10.088-52.109-2.739-7.916-7.49-12.916-13.415-14.054-5.924-1.157-12.187 1.708-17.685 8.041-11.084 12.756-15.603 36.133-10.088 52.109 2.74 7.916 7.491 12.916 13.415 14.054.854.178 1.708.249 2.58.249zm9.216-72.923c.748 0 1.495.071 2.242.213 5.267 1.014 9.554 5.604 12.063 12.898 5.338 15.443.961 38.037-9.75 50.365-5.053 5.836-10.746 8.487-16.013 7.455-5.266-1.014-9.554-5.604-12.063-12.898-5.319-15.443-.943-38.037 9.75-50.366 4.342-4.999 9.163-7.667 13.771-7.667z" fill="#181940"/><path d="M499.934 29.07l-12.383 7.418 2.562 1.477 12.365-7.419-2.544-1.476z" fill="#FFD5AD"/><path d="M490.113 141.755l12.365-7.419V30.546l-12.365 7.419v103.79z" fill="#FFD5AD"/><path d="M481.59 109.038v-3.843c.961-.035 1.62-.818 1.62-2.17 0-1.352-.659-2.9-1.62-4.038V69.988l5.961-33.5 2.562 1.477v103.79l-3.203-1.85-5.32-11.76v-6.831c2.438.782 4.271-.676 4.271-3.683 0-3.007-1.833-6.565-4.271-8.593z" fill="#181940"/><path d="M482.32 103.025c0-1.103-.552-2.42-1.423-3.47l-.214-.248.018-29.461 6.049-33.91 13.166-7.898 3.452 1.992v104.804l-13.255 7.953-3.897-2.242-5.444-12.026-.071-8.415 1.156.373c.587.196 1.424.303 2.1-.177.64-.463.996-1.406.996-2.651 0-2.687-1.655-6.013-3.95-7.917l-.32-.267v-5.106l.854-.035c.694-.054.783-.836.783-1.299zm17.614-72.924l-10.622 6.37.409.23.374.214 10.622-6.369-.783-.444zm1.654 103.737V32.112l-10.586 6.351V140.19l10.586-6.351zM482.48 98.666c1.014 1.335 1.619 2.936 1.619 4.359 0 1.566-.729 2.491-1.619 2.864v2.74c2.526 2.277 4.27 5.924 4.27 9.002 0 1.832-.605 3.273-1.726 4.092-.711.516-1.583.747-2.526.676v5.568l5.124 11.333 1.601.925V38.481l-.712-.41-.302-.177-5.729 32.094v28.678z" fill="#181940"/><path d="M470.257 108.006l9.252-5.426a2.668 2.668 0 00.943-3.647 2.668 2.668 0 00-3.647-.943l-6.601 3.879.053 6.137zm-40.298-39.21l-12.366 7.419 2.562 1.476 12.366-7.436-2.562-1.46z" fill="#FFD5AD"/><path d="M420.155 181.481l12.366-7.418V70.255l-12.366 7.436v103.79z" fill="#FFD5AD"/><path d="M411.633 148.747v-3.843c.961-.036 1.619-.818 1.619-2.17 0-1.353-.658-2.9-1.619-4.039v-28.999l5.96-33.5 2.563 1.478v103.79l-3.203-1.851-5.32-11.759v-6.832c2.438.783 4.252-.676 4.252-3.682 0-3.007-1.814-6.547-4.252-8.593z" fill="#181940"/><path d="M412.363 142.733c0-1.103-.552-2.419-1.424-3.469l-.213-.249.018-29.461 6.031-33.89 13.166-7.9 3.452 1.993V174.56l-13.255 7.952-3.897-2.241-5.444-12.027-.071-8.415 1.156.374c.587.195 1.424.302 2.1-.178.64-.463.996-1.406.996-2.651 0-2.686-1.655-6.013-3.95-7.917l-.32-.267v-5.105l.854-.036c.694-.053.801-.854.801-1.317zm17.614-72.905l-10.622 6.369.409.231.374.214 10.621-6.37-.782-.444zm1.654 103.719V71.838l-10.586 6.351v101.727l10.586-6.369zm-19.108-35.172c1.014 1.334 1.619 2.935 1.619 4.358 0 1.566-.73 2.491-1.619 2.865v2.74c2.526 2.277 4.27 5.924 4.27 9.002 0 1.832-.605 3.273-1.726 4.091-.712.516-1.583.748-2.526.676v5.569l5.124 11.332 1.619.926V78.207l-.712-.409-.302-.178-5.729 32.094v28.661h-.018z" fill="#181940"/><path d="M400.442 148.391l9.252-5.426a2.669 2.669 0 00.943-3.647 2.668 2.668 0 00-3.648-.943l-6.6 3.878.053 6.138zm-41.331-37.111l-12.383 7.418 2.562 1.477 12.366-7.419-2.545-1.476z" fill="#FFD5AD"/><path d="M349.29 223.965l12.366-7.419v-103.79l-12.366 7.419v103.79z" fill="#FFD5AD"/><path d="M340.768 191.248v-3.842c.961-.036 1.619-.819 1.619-2.171 0-1.352-.658-2.9-1.619-4.038v-28.999l5.96-33.5 2.562 1.477v103.79l-3.202-1.85-5.32-11.76v-6.831c2.437.783 4.27-.676 4.27-3.683 0-3.007-1.833-6.565-4.27-8.593z" fill="#181940"/><path d="M341.497 185.235c0-1.103-.551-2.419-1.423-3.469l-.213-.249.017-29.461 6.032-33.891 13.166-7.899 3.451 1.992v104.804l-13.255 7.953-3.896-2.242-5.444-12.026-.071-8.415 1.156.373c.587.196 1.423.303 2.099-.178.641-.462.997-1.405.997-2.65 0-2.687-1.655-6.013-3.95-7.917l-.32-.267v-5.106l.854-.035c.711-.072.8-.854.8-1.317zm17.614-72.923l-10.621 6.369.409.231.373.213 10.622-6.369-.783-.444zm1.655 103.736V114.322l-10.586 6.351V222.4l10.586-6.352zm-19.109-35.172c1.015 1.335 1.62 2.936 1.62 4.359 0 1.566-.73 2.491-1.62 2.864v2.74c2.527 2.277 4.271 5.924 4.271 9.002 0 1.833-.605 3.274-1.726 4.092-.712.516-1.584.747-2.527.676v5.568l5.124 11.333 1.619.925V120.691l-.711-.409-.303-.178-5.729 32.094v28.678h-.018z" fill="#181940"/><path d="M329.31 190.341l9.252-5.426a2.668 2.668 0 00.943-3.647 2.67 2.67 0 00-3.648-.943l-6.6 3.878.053 6.138zm-40.174-39.335l-12.366 7.419 2.562 1.476 12.366-7.418-2.562-1.477z" fill="#FFD5AD"/><path d="M279.332 263.692l12.366-7.419v-103.79l-12.366 7.419v103.79z" fill="#FFD5AD"/><path d="M270.81 230.975v-3.843c.961-.036 1.619-.818 1.619-2.171 0-1.352-.658-2.899-1.619-4.038v-28.981l5.96-33.499 2.563 1.476v103.79l-3.203-1.85-5.32-11.76v-6.831c2.438.783 4.27-.676 4.27-3.683 0-3.006-1.832-6.582-4.27-8.61z" fill="#181940"/><path d="M271.54 224.944c0-1.103-.552-2.42-1.424-3.469l-.213-.25.018-29.461 6.031-33.891 13.166-7.899 3.452 1.993v104.804l-13.255 7.952-3.897-2.241-5.444-12.027-.071-8.415 1.156.374c.587.196 1.424.302 2.1-.178.64-.462.996-1.405.996-2.651 0-2.686-1.655-6.013-3.95-7.916l-.32-.267v-5.106l.854-.036c.694-.053.801-.836.801-1.316zm17.614-72.906l-10.622 6.369.409.231.374.214 10.639-6.369-.8-.445zm1.654 103.737V154.048l-10.586 6.352v101.726l10.586-6.351zM271.7 220.603c1.014 1.334 1.619 2.935 1.619 4.358 0 1.566-.73 2.491-1.619 2.865v2.74c2.526 2.277 4.27 5.924 4.27 9.002 0 1.832-.605 3.273-1.726 4.091-.712.516-1.583.748-2.526.676v5.569l5.124 11.332 1.619.925V160.417l-.712-.409-.302-.178-5.729 32.094v28.679h-.018z" fill="#181940"/><path d="M259.619 230.601l9.252-5.426a2.668 2.668 0 00.943-3.647 2.67 2.67 0 00-3.648-.943l-6.6 3.878.053 6.138zm-41.33-37.111l-12.366 7.419 2.544 1.476 12.384-7.419-2.562-1.476z" fill="#FFD5AD"/><path d="M208.467 306.193l12.384-7.436v-103.79l-12.384 7.418v103.808z" fill="#FFD5AD"/><path d="M199.945 273.458v-3.842c.961-.036 1.619-.819 1.619-2.171 0-1.352-.658-2.9-1.619-4.038v-28.981l5.961-33.5 2.562 1.477v103.79l-3.203-1.85-5.32-11.76v-6.831c2.438.782 4.27-.676 4.27-3.683 0-3.007-1.832-6.565-4.27-8.611z" fill="#181940"/><path d="M200.692 267.445c0-1.103-.551-2.419-1.423-3.469l-.214-.249.018-29.461 6.032-33.891 13.166-7.899 3.451 1.992v104.804l-13.255 7.953-3.896-2.242-5.444-12.026-.072-8.415 1.157.373c.587.196 1.423.303 2.099-.177.641-.463.997-1.406.997-2.651 0-2.687-1.655-6.013-3.95-7.917l-.32-.267v-5.106l.854-.035c.694-.071.8-.854.8-1.317zm17.597-72.923l-10.622 6.369.409.231.374.214 10.621-6.37-.782-.444zm1.672 103.736V196.532l-10.586 6.351V304.61l10.586-6.352zm-19.126-35.172c1.014 1.335 1.619 2.936 1.619 4.359 0 1.566-.73 2.491-1.619 2.864v2.74c2.526 2.277 4.27 5.924 4.27 9.002 0 1.833-.605 3.274-1.726 4.092-.712.516-1.584.747-2.527.676v5.569l5.125 11.332 1.619.925V202.901l-.712-.409-.303-.178-5.729 32.094v28.678h-.017z" fill="#181940"/><path d="M188.042 273.369l9.252-5.426a2.668 2.668 0 00.943-3.647 2.668 2.668 0 00-3.647-.943l-6.601 3.879.053 6.137zm-39.711-40.153l-12.383 7.419 2.562 1.476 12.365-7.418-2.544-1.477z" fill="#FFD5AD"/><path d="M138.51 345.902l12.365-7.419v-103.79l-12.365 7.419v103.79z" fill="#FFD5AD"/><path d="M129.987 313.185v-3.843c.961-.036 1.62-.819 1.62-2.171 0-1.352-.659-2.899-1.62-4.038v-28.981l5.961-33.499 2.562 1.476v103.79l-3.203-1.85-5.32-11.76v-6.831c2.438.783 4.271-.676 4.271-3.683 0-3.006-1.833-6.582-4.271-8.61z" fill="#181940"/><path d="M130.717 307.171c0-1.103-.552-2.419-1.423-3.469l-.214-.249.036-29.479 6.031-33.891 13.166-7.899 3.452 1.993v104.804l-13.255 7.952-3.897-2.241-5.444-12.027-.071-8.415 1.156.374c.588.196 1.424.302 2.1-.178.64-.462.996-1.405.996-2.651 0-2.686-1.654-6.013-3.95-7.916l-.32-.267v-5.106l.854-.036c.694-.053.783-.836.783-1.299zm17.614-72.923l-10.622 6.369.409.231.374.214 10.622-6.369-.783-.445zm1.654 103.737V236.258l-10.586 6.352v101.726l10.586-6.351zm-19.108-35.172c1.014 1.334 1.619 2.935 1.619 4.358 0 1.566-.729 2.491-1.619 2.865v2.74c2.527 2.277 4.27 5.924 4.27 9.002 0 1.832-.605 3.273-1.726 4.091-.711.516-1.583.748-2.526.676v5.569l5.124 11.332 1.619.926V242.627l-.712-.409-.302-.178-5.729 32.094v28.679h-.018z" fill="#181940"/><path d="M117.907 310.765l9.251-5.426a2.667 2.667 0 00.943-3.647 2.668 2.668 0 00-3.647-.943l-6.601 3.878.054 6.138z" fill="#FFD5AD"/></svg>