<svg width="457" height="473" fill="none" xmlns="http://www.w3.org/2000/svg"><path d="M268.778 439.484c1.401.77 1.401 2.1 0 2.869-1.401.77-3.643.77-5.044 0-1.401-.769-1.401-2.099 0-2.869 1.401-.769 3.643-.769 5.044 0zm13.168-7.559c1.401.769 1.401 2.099 0 2.868-1.401.77-3.643.77-5.044 0-1.401-.769-1.401-2.099 0-2.868 1.401-.84 3.643-.84 5.044 0zm13.1-7.627c1.401.77 1.401 2.099 0 2.869-1.401.769-3.642.769-5.043 0-1.401-.77-1.401-2.099 0-2.869s3.712-.77 5.043 0zm13.168-7.555c1.401.77 1.401 2.099 0 2.869s-3.642.77-5.043 0c-1.401-.77-1.401-2.099 0-2.869 1.401-.769 3.642-.769 5.043 0zm13.17-7.559c1.401.77 1.401 2.1 0 2.869-1.401.77-3.642.77-5.043 0-1.401-.769-1.401-2.099 0-2.869 1.401-.839 3.642-.839 5.043 0zm13.099-7.626c1.401.769 1.401 2.099 0 2.868-1.401.77-3.643.77-5.044 0-1.401-.769-1.401-2.099 0-2.868 1.401-.77 3.713-.77 5.044 0zm-78.875 30.367c1.401.769 1.401 2.099 0 2.868-1.401.77-3.643.77-5.044 0-1.401-.769-1.401-2.099 0-2.868 1.401-.84 3.713-.84 5.044 0zm13.17-7.627c1.401.77 1.401 2.099 0 2.869-1.401.769-3.643.769-5.044 0-1.401-.77-1.401-2.099 0-2.869s3.643-.77 5.044 0zm13.168-7.555c1.401.77 1.401 2.099 0 2.869s-3.643.77-5.044 0c-1.401-.77-1.401-2.099 0-2.869 1.401-.769 3.643-.769 5.044 0zm13.1-7.559c1.401.77 1.401 2.1 0 2.869-1.401.77-3.642.77-5.043 0-1.401-.769-1.401-2.099 0-2.869 1.401-.839 3.712-.839 5.043 0zm13.168-7.626c1.401.769 1.401 2.099 0 2.868-1.401.77-3.642.77-5.043 0-1.401-.769-1.401-2.099 0-2.868 1.401-.77 3.642-.77 5.043 0zm13.17-7.555c1.401.77 1.401 2.099 0 2.869s-3.642.77-5.043 0c-1.401-.77-1.401-2.099 0-2.869s3.642-.77 5.043 0zm-78.875 30.295c1.401.77 1.401 2.099 0 2.869-1.401.769-3.642.769-5.043 0-1.401-.77-1.401-2.099 0-2.869s3.642-.77 5.043 0zm13.099-7.555c1.401.77 1.401 2.099 0 2.869s-3.643.77-5.044 0c-1.401-.77-1.401-2.099 0-2.869 1.401-.769 3.713-.769 5.044 0zm13.17-7.559c1.401.77 1.401 2.1 0 2.869-1.401.77-3.643.77-5.044 0-1.401-.769-1.401-2.099 0-2.869 1.401-.839 3.643-.839 5.044 0zm13.168-7.626c1.401.769 1.401 2.099 0 2.868-1.401.77-3.643.77-5.044 0-1.401-.769-1.401-2.099 0-2.868 1.401-.77 3.643-.77 5.044 0zm13.1-7.555c1.401.77 1.401 2.099 0 2.869s-3.642.77-5.043 0c-1.401-.77-1.401-2.099 0-2.869s3.712-.77 5.043 0zm13.168-7.559c1.401.77 1.401 2.099 0 2.869s-3.642.77-5.043 0c-1.401-.77-1.401-2.099 0-2.869 1.401-.839 3.642-.839 5.043 0zm-78.875 30.299c1.401.77 1.401 2.099 0 2.869s-3.642.77-5.043 0c-1.401-.77-1.401-2.099 0-2.869 1.401-.769 3.642-.769 5.043 0zm13.17-7.559c1.401.77 1.401 2.1 0 2.869-1.401.77-3.642.77-5.043 0-1.401-.769-1.401-2.099 0-2.869 1.401-.839 3.642-.839 5.043 0zm13.099-7.626c1.401.769 1.401 2.099 0 2.868-1.401.77-3.643.77-5.044 0-1.401-.769-1.401-2.099 0-2.868 1.401-.77 3.713-.77 5.044 0zm13.17-7.555c1.401.77 1.401 2.099 0 2.869s-3.643.77-5.044 0c-1.401-.77-1.401-2.099 0-2.869s3.643-.77 5.044 0zm13.168-7.559c1.401.77 1.401 2.099 0 2.869s-3.643.77-5.044 0c-1.401-.77-1.401-2.099 0-2.869 1.401-.839 3.643-.839 5.044 0zm13.1-7.627c1.401.77 1.401 2.1 0 2.869-1.401.77-3.642.77-5.043 0-1.401-.769-1.401-2.099 0-2.869 1.401-.769 3.712-.769 5.043 0zm-78.876 30.367c1.401.77 1.401 2.1 0 2.869-1.401.77-3.642.77-5.043 0-1.401-.769-1.401-2.099 0-2.869 1.471-.839 3.713-.839 5.043 0zm13.169-7.626c1.401.769 1.401 2.099 0 2.868-1.401.77-3.642.77-5.043 0-1.401-.769-1.401-2.099 0-2.868 1.401-.77 3.642-.77 5.043 0zm10.649-4.056c1.973 0 3.572-.909 3.572-2.029 0-1.121-1.599-2.03-3.572-2.03-1.974 0-3.573.909-3.573 2.03 0 1.12 1.599 2.029 3.573 2.029zm15.62-11.058c1.401.77 1.401 2.099 0 2.869s-3.643.77-5.044 0c-1.401-.77-1.401-2.099 0-2.869 1.401-.839 3.713-.839 5.044 0zm13.17-7.627c1.401.77 1.401 2.1 0 2.869-1.401.77-3.643.77-5.044 0-1.401-.769-1.401-2.099 0-2.869 1.401-.769 3.643-.769 5.044 0zm13.168-7.554c1.401.769 1.401 2.099 0 2.869-1.401.769-3.643.769-5.044 0-1.401-.77-1.401-2.1 0-2.869 1.401-.77 3.643-.77 5.044 0zm-79.016 30.226c1.401.77 1.401 2.1 0 2.869-1.401.77-3.642.77-5.043 0-1.401-.769-1.401-2.099 0-2.869 1.401-.769 3.642-.769 5.043 0zm13.17-7.557c1.401.77 1.401 2.1 0 2.869-1.401.77-3.642.77-5.043 0-1.401-.769-1.401-2.099 0-2.869 1.401-.839 3.642-.839 5.043 0zm26.269-15.183c1.401.77 1.401 2.099 0 2.869s-3.643.77-5.044 0c-1.401-.77-1.401-2.099 0-2.869s3.643-.77 5.044 0zM97.787 446.97c1.4.77 1.4 2.099 0 2.869-1.401.769-3.643.769-5.044 0-1.4-.77-1.4-2.099 0-2.869 1.401-.77 3.643-.77 5.044 0zm13.17-7.556c1.401.77 1.401 2.099 0 2.869-1.401.769-3.643.769-5.044 0-1.401-.77-1.401-2.099 0-2.869 1.401-.84 3.643-.84 5.044 0zm13.098-7.558c1.401.77 1.401 2.099 0 2.869s-3.642.77-5.043 0c-1.401-.77-1.401-2.099 0-2.869 1.401-.839 3.642-.839 5.043 0zm13.17-7.626c1.401.769 1.401 2.099 0 2.868-1.401.77-3.642.77-5.043 0-1.401-.769-1.401-2.099 0-2.868 1.401-.77 3.642-.77 5.043 0zm13.169-7.557c1.401.769 1.401 2.099 0 2.869-1.401.769-3.642.769-5.043 0-1.401-.77-1.401-2.1 0-2.869 1.401-.84 3.642-.84 5.043 0zm13.1-7.557c1.401.77 1.401 2.099 0 2.869-1.401.769-3.643.769-5.044 0-1.401-.77-1.401-2.099 0-2.869 1.401-.84 3.643-.84 5.044 0zm13.169-7.627c1.401.77 1.401 2.1 0 2.869-1.401.77-3.643.77-5.044 0-1.401-.769-1.401-2.099 0-2.869 1.401-.769 3.643-.769 5.044 0zm78.875-30.297c1.401.77 1.401 2.099 0 2.869s-3.643.77-5.044 0c-1.401-.77-1.401-2.099 0-2.869 1.401-.839 3.643-.839 5.044 0zm13.099-7.626c1.401.769 1.401 2.099 0 2.868-1.401.77-3.642.77-5.043 0-1.401-.769-1.401-2.099 0-2.868 1.471-.77 3.712-.77 5.043 0zm-78.804 30.366c1.401.77 1.401 2.1 0 2.869-1.401.77-3.643.77-5.044 0-1.401-.769-1.401-2.099 0-2.869 1.401-.839 3.643-.839 5.044 0zm13.097-7.556c1.401.77 1.401 2.099 0 2.869-1.401.769-3.642.769-5.043 0-1.401-.77-1.401-2.099 0-2.869 1.401-.84 3.642-.84 5.043 0zm26.339-15.184c1.401.77 1.401 2.099 0 2.869s-3.642.77-5.043 0c-1.401-.77-1.401-2.099 0-2.869 1.401-.839 3.642-.839 5.043 0zM71.518 446.97c1.401.77 1.401 2.099 0 2.869-1.4.769-3.642.769-5.043 0-1.401-.77-1.401-2.099 0-2.869 1.4-.77 3.642-.77 5.043 0zm13.101-7.556c1.4.77 1.4 2.099 0 2.869-1.401.769-3.643.769-5.044 0-1.4-.77-1.4-2.099 0-2.869 1.401-.84 3.643-.84 5.044 0zm13.168-7.558c1.4.77 1.4 2.099 0 2.869-1.401.77-3.643.77-5.044 0-1.4-.77-1.4-2.099 0-2.869 1.401-.839 3.643-.839 5.044 0zm13.17-7.626c1.401.769 1.401 2.099 0 2.868-1.401.77-3.643.77-5.044 0-1.401-.769-1.401-2.099 0-2.868 1.401-.77 3.643-.77 5.044 0zm13.098-7.557c1.401.769 1.401 2.099 0 2.869-1.401.769-3.642.769-5.043 0-1.401-.77-1.401-2.1 0-2.869 1.401-.84 3.642-.84 5.043 0zm13.17-7.556c1.401.77 1.401 2.1 0 2.869-1.401.77-3.642.77-5.043 0-1.401-.769-1.401-2.099 0-2.869 1.401-.769 3.642-.839 5.043 0zm10.647-4.13c1.973 0 3.573-.908 3.573-2.029s-1.6-2.029-3.573-2.029c-1.973 0-3.572.908-3.572 2.029s1.599 2.029 3.572 2.029zm15.622-11.055c1.401.77 1.401 2.1 0 2.869-1.401.77-3.643.77-5.044 0-1.401-.769-1.401-2.099 0-2.869 1.401-.839 3.643-.839 5.044 0zm78.875-30.366c1.401.769 1.401 2.099 0 2.868-1.401.77-3.643.77-5.044 0-1.401-.769-1.401-2.099 0-2.868 1.401-.77 3.643-.77 5.044 0zm13.169-7.558c1.401.77 1.401 2.099 0 2.869-1.401.769-3.643.769-5.044 0-1.401-.77-1.401-2.099 0-2.869s3.643-.77 5.044 0zm-78.875 30.368c1.401.77 1.401 2.099 0 2.869-1.401.769-3.643.769-5.044 0-1.401-.77-1.401-2.099 0-2.869 1.401-.84 3.643-.84 5.044 0zm13.17-7.627c1.401.77 1.401 2.099 0 2.869s-3.643.77-5.044 0c-1.401-.77-1.401-2.099 0-2.869s3.643-.77 5.044 0zm-2.522 33.796c1.973 0 3.572-.909 3.572-2.03 0-1.12-1.599-2.029-3.572-2.029s-3.573.909-3.573 2.029c0 1.121 1.6 2.03 3.573 2.03zm28.789-48.979c1.401.769 1.401 2.099 0 2.868-1.401.77-3.642.77-5.043 0-1.401-.769-1.401-2.099 0-2.868 1.401-.77 3.642-.77 5.043 0zM58.35 439.414c1.401.77 1.401 2.099 0 2.869-1.4.769-3.642.769-5.043 0-1.401-.77-1.401-2.099 0-2.869 1.4-.84 3.642-.84 5.043 0zm13.168-7.558c1.401.77 1.401 2.099 0 2.869-1.4.77-3.642.77-5.043 0-1.401-.77-1.401-2.099 0-2.869 1.4-.839 3.642-.839 5.043 0zm13.101-7.626c1.4.769 1.4 2.099 0 2.868-1.401.77-3.643.77-5.044 0-1.4-.769-1.4-2.099 0-2.868 1.401-.77 3.643-.77 5.044 0zm13.168-7.557c1.4.769 1.4 2.099 0 2.869-1.401.769-3.643.769-5.044 0-1.4-.77-1.4-2.1 0-2.869 1.401-.84 3.643-.84 5.044 0zm13.17-7.557c1.401.77 1.401 2.099 0 2.869-1.401.769-3.643.769-5.044 0-1.401-.77-1.401-2.099 0-2.869 1.401-.84 3.643-.84 5.044 0zm13.098-7.627c1.401.77 1.401 2.1 0 2.869-1.401.77-3.642.77-5.043 0-1.401-.769-1.401-2.099 0-2.869 1.401-.769 3.642-.769 5.043 0zm13.17-7.557c1.401.77 1.401 2.1 0 2.869-1.401.77-3.642.77-5.043 0-1.401-.769-1.401-2.099 0-2.869 1.401-.839 3.642-.839 5.043 0zm10.647-4.128c1.973 0 3.573-.908 3.573-2.029 0-1.12-1.6-2.029-3.573-2.029-1.973 0-3.572.909-3.572 2.029 0 1.121 1.599 2.029 3.572 2.029zm13.1-7.557c1.973 0 3.572-.909 3.572-2.029 0-1.121-1.599-2.03-3.572-2.03s-3.573.909-3.573 2.03c0 1.12 1.6 2.029 3.573 2.029zm65.775-22.74c1.973 0 3.573-.909 3.573-2.03 0-1.12-1.6-2.029-3.573-2.029-1.973 0-3.572.909-3.572 2.029 0 1.121 1.599 2.03 3.572 2.03zm15.622-11.055c1.401.77 1.401 2.099 0 2.869-1.401.769-3.643.769-5.044 0-1.401-.77-1.401-2.099 0-2.869 1.401-.84 3.643-.84 5.044 0zm-65.706 22.74c1.401.77 1.401 2.099 0 2.869s-3.643.77-5.044 0c-1.401-.77-1.401-2.099 0-2.869 1.401-.839 3.643-.839 5.044 0zm26.267-15.184c1.401.77 1.401 2.099 0 2.869-1.401.769-3.642.769-5.043 0-1.401-.77-1.401-2.099 0-2.869s3.642-.77 5.043 0zM42.66 435.285c1.973 0 3.572-.909 3.572-2.029 0-1.121-1.6-2.029-3.573-2.029-1.973 0-3.572.908-3.572 2.029 0 1.12 1.6 2.029 3.572 2.029zm15.69-11.055c1.401.769 1.401 2.099 0 2.868-1.4.77-3.642.77-5.043 0-1.401-.769-1.401-2.099 0-2.868 1.4-.77 3.642-.77 5.043 0zm13.168-7.557c1.401.769 1.401 2.099 0 2.869-1.4.769-3.642.769-5.043 0-1.401-.77-1.401-2.1 0-2.869 1.4-.84 3.642-.84 5.043 0zm13.101-7.557c1.4.77 1.4 2.099 0 2.869-1.401.769-3.643.769-5.044 0-1.4-.77-1.4-2.099 0-2.869 1.401-.84 3.643-.84 5.044 0zm13.168-7.627c1.4.77 1.4 2.1 0 2.869-1.401.77-3.643.77-5.044 0-1.4-.769-1.4-2.099 0-2.869 1.401-.769 3.643-.769 5.044 0zm13.17-7.557c1.401.77 1.401 2.1 0 2.869-1.401.77-3.643.77-5.044 0-1.401-.769-1.401-2.099 0-2.869 1.401-.839 3.643-.839 5.044 0zm13.098-7.556c1.401.77 1.401 2.099 0 2.869-1.401.769-3.642.769-5.043 0-1.401-.77-1.401-2.099 0-2.869 1.401-.84 3.642-.84 5.043 0zm13.17-7.627c1.401.77 1.401 2.099 0 2.869s-3.642.77-5.043 0c-1.401-.77-1.401-2.099 0-2.869s3.642-.77 5.043 0zm13.169-7.557c1.401.77 1.401 2.099 0 2.869s-3.642.77-5.043 0c-1.401-.77-1.401-2.099 0-2.869 1.401-.839 3.642-.839 5.043 0zm13.1-7.626c1.401.769 1.401 2.099 0 2.868-1.401.77-3.643.77-5.044 0-1.401-.769-1.401-2.099 0-2.868 1.401-.77 3.643-.77 5.044 0zm52.606-15.114c1.401.77 1.401 2.099 0 2.869-1.401.769-3.642.769-5.043 0-1.401-.77-1.401-2.099 0-2.869 1.401-.84 3.642-.84 5.043 0zm10.647-4.129c1.973 0 3.573-.909 3.573-2.029 0-1.121-1.6-2.029-3.573-2.029-1.973 0-3.572.908-3.572 2.029 0 1.12 1.599 2.029 3.572 2.029zm-36.914 4.129c1.401.77 1.401 2.099 0 2.869-1.401.769-3.643.769-5.044 0-1.401-.77-1.401-2.099 0-2.869 1.401-.84 3.643-.84 5.044 0zM32.082 424.23c1.4.769 1.4 2.099 0 2.868-1.401.77-3.643.77-5.044 0-1.4-.769-1.4-2.099 0-2.868 1.401-.77 3.643-.77 5.044 0zm13.099-7.557c1.401.769 1.401 2.099 0 2.869-1.4.769-3.642.769-5.043 0-1.401-.77-1.401-2.1 0-2.869 1.4-.84 3.642-.84 5.043 0zm26.337-15.184c1.401.77 1.401 2.1 0 2.869-1.4.77-3.642.77-5.043 0-1.401-.769-1.401-2.099 0-2.869 1.4-.769 3.642-.769 5.043 0zm13.101-7.557c1.4.77 1.4 2.1 0 2.869-1.401.77-3.643.77-5.044 0-1.4-.769-1.4-2.099 0-2.869 1.401-.839 3.643-.839 5.044 0zm13.168-7.556c1.4.77 1.4 2.099 0 2.869-1.401.769-3.643.769-5.044 0-1.4-.77-1.4-2.099 0-2.869 1.401-.84 3.643-.84 5.044 0zm13.17-7.627c1.401.77 1.401 2.099 0 2.869s-3.643.77-5.044 0c-1.401-.77-1.401-2.099 0-2.869s3.643-.77 5.044 0zm13.098-7.557c1.401.77 1.401 2.099 0 2.869s-3.642.77-5.043 0c-1.401-.77-1.401-2.099 0-2.869 1.401-.839 3.642-.839 5.043 0zm13.17-7.626c1.401.769 1.401 2.099 0 2.868-1.401.77-3.642.77-5.043 0-1.401-.769-1.401-2.099 0-2.868 1.401-.77 3.642-.77 5.043 0zm13.169-7.558c1.401.77 1.401 2.099 0 2.869-1.401.769-3.642.769-5.043 0-1.401-.77-1.401-2.099 0-2.869s3.642-.77 5.043 0zm13.1-7.556c1.401.77 1.401 2.099 0 2.869-1.401.769-3.643.769-5.044 0-1.401-.77-1.401-2.099 0-2.869 1.401-.84 3.643-.84 5.044 0zm39.436-7.627c1.401.77 1.401 2.099 0 2.869s-3.642.77-5.043 0c-1.401-.77-1.401-2.099 0-2.869 1.401-.769 3.642-.769 5.043 0zm13.17-7.557c1.401.769 1.401 2.099 0 2.868-1.401.77-3.642.77-5.043 0-1.401-.769-1.401-2.099 0-2.868 1.401-.77 3.642-.77 5.043 0zm-39.437 7.557c1.401.77 1.401 2.099 0 2.869s-3.643.77-5.044 0c-1.401-.77-1.401-2.099 0-2.869 1.401-.769 3.643-.769 5.044 0zM32.082 409.116c1.4.77 1.4 2.099 0 2.869-1.401.769-3.643.769-5.044 0-1.4-.77-1.4-2.099 0-2.869 1.401-.84 3.643-.84 5.044 0zm26.268-15.184c1.401.77 1.401 2.1 0 2.869-1.4.77-3.642.77-5.043 0-1.401-.769-1.401-2.099 0-2.869 1.4-.839 3.642-.839 5.043 0zm13.168-7.556c1.401.77 1.401 2.099 0 2.869-1.4.769-3.642.769-5.043 0-1.401-.77-1.401-2.099 0-2.869 1.4-.84 3.642-.84 5.043 0zm13.101-7.627c1.4.77 1.4 2.099 0 2.869-1.401.77-3.643.77-5.044 0-1.4-.77-1.4-2.099 0-2.869 1.401-.77 3.643-.77 5.044 0zm13.168-7.557c1.4.77 1.4 2.099 0 2.869-1.401.77-3.643.77-5.044 0-1.4-.77-1.4-2.099 0-2.869 1.401-.839 3.643-.839 5.044 0zm13.17-7.626c1.401.769 1.401 2.099 0 2.868-1.401.77-3.643.77-5.044 0-1.401-.769-1.401-2.099 0-2.868 1.401-.77 3.643-.77 5.044 0zm13.098-7.558c1.401.77 1.401 2.099 0 2.869-1.401.769-3.642.769-5.043 0-1.401-.77-1.401-2.099 0-2.869s3.642-.77 5.043 0zm13.17-7.556c1.401.77 1.401 2.099 0 2.869-1.401.769-3.642.769-5.043 0-1.401-.77-1.401-2.099 0-2.869 1.401-.84 3.642-.84 5.043 0zm13.169-7.627c1.401.77 1.401 2.099 0 2.869s-3.642.77-5.043 0c-1.401-.77-1.401-2.099 0-2.869 1.401-.769 3.642-.769 5.043 0zm13.1-7.557c1.401.769 1.401 2.099 0 2.868-1.401.77-3.643.77-5.044 0-1.401-.769-1.401-2.099 0-2.868 1.401-.77 3.643-.77 5.044 0zm26.339 0c1.401.769 1.401 2.099 0 2.868-1.401.77-3.643.77-5.044 0-1.401-.769-1.401-2.099 0-2.868 1.401-.77 3.643-.77 5.044 0zm13.097-7.556c1.401.769 1.401 2.099 0 2.868-1.401.77-3.642.77-5.043 0-1.401-.769-1.401-2.099 0-2.868 1.401-.84 3.642-.84 5.043 0zm-91.973 22.738c1.401.77 1.401 2.099 0 2.869s-3.643.77-5.044 0c-1.401-.77 3.643-3.708 5.044-2.869zm8.055-7.625c1.401-.769 3.642-.769 5.043 0 1.401.77 1.401 2.099 0 2.869s-3.642.77-5.043 0c-1.331-.77-1.331-2.029 0-2.869 1.401-.769-1.331.84 0 0zm18.213-7.557c1.401.769 1.401 2.099 0 2.868-1.401.77-3.642.77-5.043 0-1.401-.769-1.401-2.099 0-2.868 1.401-.77 3.642-.77 5.043 0zm13.169-7.556c1.401.769 1.401 2.099 0 2.868-1.401.77-3.642.77-5.043 0-1.401-.769-1.401-2.099 0-2.868 1.401-.84 3.642-.84 5.043 0zm13.1-7.627c1.401.77 1.401 2.099 0 2.869s-3.643.77-5.044 0c-1.401-.77-1.401-2.099 0-2.869s3.643-.77 5.044 0zm13.169 7.627c1.401.769 1.401 2.099 0 2.868-1.401.77-3.643.77-5.044 0-1.401-.769-1.401-2.099 0-2.868 1.401-.84 3.643-.84 5.044 0zm13.17-7.627c1.401.77 1.401 2.099 0 2.869s-3.643.77-5.044 0c-1.401-.77-1.401-2.099 0-2.869s3.643-.77 5.044 0zm-13.17-7.558c1.401.77 1.401 2.1 0 2.869-1.401.77-3.643.77-5.044 0-1.401-.769-1.401-2.099 0-2.869 1.401-.769 3.643-.769 5.044 0zm92.045 40.934c-1.401.77-3.643.77-5.044 0-1.401-.769-1.401-2.099 0-2.868 1.401-.84 6.445 2.029 5.044 2.868zm-13.17-7.626c-1.401.769-3.643.769-5.044 0-1.401-.77-1.401-2.099 0-2.869s6.445 2.099 5.044 2.869zm-13.099-10.426c1.401.77 1.401 2.099 0 2.869s-3.643.839-5.044 0c-1.401-.84-1.401-2.099 0-2.869 1.401-.84 3.643-.84 5.044 0 1.331.77-1.401-.84 0 0zm-13.17-4.688c-1.401.77-3.642.77-5.043 0-1.401-.769-1.401-2.099 0-2.869 1.401-.839 6.444 2.03 5.043 2.869zm118.664 140.781c1.401.77 1.401 2.099 0 2.869s-3.642.77-5.043 0c-1.401-.77-1.401-2.099 0-2.869s3.642-.77 5.043 0zm13.099-7.558c1.401.77 1.401 2.1 0 2.869-1.401.77-3.643.77-5.044 0-1.401-.769-1.401-2.099 0-2.869 1.401-.769 3.713-.769 5.044 0zm13.17-7.555c1.401.769 1.401 2.099 0 2.868-1.401.77-3.643.77-5.044 0-1.401-.769-1.401-2.099 0-2.868 1.401-.84 3.643-.84 5.044 0zm13.169-7.628c1.401.77 1.401 2.099 0 2.869-1.401.769-3.643.769-5.044 0-1.401-.77-1.401-2.099 0-2.869s3.643-.77 5.044 0zm-65.846 22.669c1.401.769 1.401 2.099 0 2.869-1.401.769-3.643.769-5.044 0-1.401-.77-1.401-2.1 0-2.869 1.401-.77 3.643-.77 5.044 0zm13.098-7.556c1.401.77 1.401 2.099 0 2.869-1.401.769-3.643.769-5.044 0-1.401-.77-1.401-2.099 0-2.869 1.401-.84 3.713-.84 5.044 0zm13.17-7.558c1.401.77 1.401 2.099 0 2.869s-3.642.77-5.043 0c-1.401-.77-1.401-2.099 0-2.869 1.401-.839 3.642-.839 5.043 0zm13.168-7.626c1.401.769 1.401 2.099 0 2.868-1.401.77-3.642.77-5.043 0-1.401-.769-1.401-2.099 0-2.868 1.401-.77 3.642-.77 5.043 0zm10.649-4.059c1.973 0 3.572-.909 3.572-2.03 0-1.12-1.599-2.029-3.572-2.029s-3.573.909-3.573 2.029c0 1.121 1.6 2.03 3.573 2.03zm15.62-11.055c1.401.77 1.401 2.099 0 2.869-1.401.769-3.643.769-5.044 0-1.401-.77-1.401-2.099 0-2.869 1.401-.84 3.643-.84 5.044 0zm-78.875 30.298c1.401.77 1.401 2.099 0 2.869-1.401.769-3.643.769-5.044 0-1.401-.77-1.401-2.099 0-2.869 1.401-.84 3.643-.84 5.044 0zm10.648-4.129c1.973 0 3.573-.909 3.573-2.029 0-1.121-1.6-2.029-3.573-2.029-1.973 0-3.572.908-3.572 2.029 0 1.12 1.599 2.029 3.572 2.029zm15.62-11.055c1.401.769 1.401 2.099 0 2.868-1.401.77-3.643.77-5.044 0-1.401-.769-1.401-2.099 0-2.868 1.401-.77 3.713-.77 5.044 0zm13.17-7.556c1.401.769 1.401 2.099 0 2.868-1.401.77-3.642.77-5.043 0-1.401-.769-1.401-2.099 0-2.868 1.401-.84 3.642-.84 5.043 0zm13.168-7.558c1.401.77 1.401 2.099 0 2.869-1.401.769-3.642.769-5.043 0-1.401-.77-1.401-2.099 0-2.869 1.401-.84 3.642-.84 5.043 0zm13.1-7.627c1.401.77 1.401 2.099 0 2.869s-3.642.77-5.043 0c-1.401-.77-1.401-2.099 0-2.869 1.401-.769 3.712-.769 5.043 0zm-78.875 30.369c1.401.769 1.401 2.099 0 2.868-1.401.77-3.642.77-5.043 0-1.401-.769-1.401-2.099 0-2.868 1.401-.77 3.712-.84 5.043 0zm13.169-7.628c1.401.769 1.401 2.099 0 2.868-1.401.77-3.643.77-5.044 0-1.401-.769-1.401-2.099 0-2.868 1.401-.77 3.643-.77 5.044 0zm10.648-4.059c1.973 0 3.573-.909 3.573-2.03 0-1.12-1.6-2.029-3.573-2.029-1.973 0-3.572.909-3.572 2.029 0 1.121 1.599 2.03 3.572 2.03zm15.62-11.055c1.401.77 1.401 2.099 0 2.869-1.401.769-3.643.769-5.044 0-1.401-.77-1.401-2.099 0-2.869 1.401-.84 3.713-.84 5.044 0zm13.17-7.627c1.401.77 1.401 2.099 0 2.869s-3.642.77-5.043 0c-1.401-.77-1.401-2.099 0-2.869 1.401-.769 3.642-.769 5.043 0zm13.168-7.556c1.401.77 1.401 2.1 0 2.869-1.401.77-3.642.77-5.043 0-1.401-.769-1.401-2.099 0-2.869 1.401-.839 3.642-.839 5.043 0zm-78.875 30.297c1.401.769 1.401 2.099 0 2.868-1.401.77-3.642.77-5.043 0-1.401-.769-1.401-2.099 0-2.868 1.401-.77 3.642-.77 5.043 0zm13.1-7.556c1.401.769 1.401 2.099 0 2.868-1.401.77-3.642.77-5.043 0-1.401-.769-1.401-2.099 0-2.868 1.401-.84 3.712-.84 5.043 0zm13.169-7.558c1.401.77 1.401 2.099 0 2.869-1.401.769-3.643.769-5.044 0-1.401-.77-1.401-2.099 0-2.869 1.401-.84 3.643-.84 5.044 0zm13.17-7.627c1.401.77 1.401 2.099 0 2.869s-3.643.77-5.044 0c-1.401-.77-1.401-2.099 0-2.869 1.401-.769 3.643-.769 5.044 0zm13.098-7.556c1.401.77 1.401 2.1 0 2.869-1.401.77-3.643.77-5.044 0-1.401-.769-1.401-2.099 0-2.869 1.401-.839 3.713-.839 5.044 0zm13.17-7.557c1.401.769 1.401 2.099 0 2.869-1.401.769-3.642.769-5.043 0-1.401-.77-1.401-2.1 0-2.869 1.401-.84 3.642-.84 5.043 0zm49.874-103.485c1.973 0 3.573-.908 3.573-2.029s-1.6-2.029-3.573-2.029c-1.973 0-3.572.908-3.572 2.029s1.599 2.029 3.572 2.029zm15.622-11.057c1.401.769 1.401 2.099 0 2.869-1.401.769-3.643.769-5.044 0-1.401-.77-1.401-2.1 0-2.869 1.471-.84 3.713-.84 5.044 0zm10.647-4.125c1.973 0 3.572-.909 3.572-2.03 0-1.12-1.599-2.029-3.572-2.029s-3.573.909-3.573 2.029c0 1.121 1.6 2.03 3.573 2.03zm13.17-7.558c1.973 0 3.572-.908 3.572-2.029s-1.599-2.029-3.572-2.029-3.573.908-3.573 2.029 1.6 2.029 3.573 2.029zm-50.086 11.683c1.401.769 1.401 2.099 0 2.869-1.401.769-3.642.769-5.043 0-1.401-.77-1.401-2.1 0-2.869 1.401-.84 3.642-.84 5.043 0zm13.169-7.627c1.401.77 1.401 2.099 0 2.869s-3.643.77-5.044 0c-1.401-.77-1.401-2.099 0-2.869s3.643-.77 5.044 0zm10.648-4.056c1.973 0 3.573-.908 3.573-2.029s-1.6-2.029-3.573-2.029c-1.973 0-3.572.908-3.572 2.029s1.599 2.029 3.572 2.029zm15.621-11.057c1.401.769 1.401 2.099 0 2.868-1.401.77-3.643.77-5.044 0-1.401-.769-1.401-2.099 0-2.868 1.401-.84 3.643-.84 5.044 0zm-52.538 15.113c1.401.77 1.401 2.099 0 2.869s-3.642.77-5.043 0c-1.401-.77-1.401-2.099 0-2.869s3.642-.77 5.043 0zm10.578-4.056c1.973 0 3.573-.908 3.573-2.029s-1.6-2.029-3.573-2.029c-1.973 0-3.572.908-3.572 2.029s1.599 2.029 3.572 2.029zm15.691-11.056c1.401.77 1.401 2.099 0 2.869-1.401.769-3.643.769-5.044 0-1.401-.77-1.401-2.099 0-2.869s3.643-.84 5.044 0zm10.648-4.128c1.973 0 3.573-.908 3.573-2.029 0-1.12-1.6-2.029-3.573-2.029-1.973 0-3.572.909-3.572 2.029 0 1.121 1.599 2.029 3.572 2.029zm-52.606 15.184c1.973 0 3.572-.908 3.572-2.029s-1.599-2.029-3.572-2.029-3.573.908-3.573 2.029 1.6 2.029 3.573 2.029zm15.689-11.057c1.401.769 1.401 2.099 0 2.868-1.401.77-3.642.77-5.043 0-1.401-.769-1.401-2.099 0-2.868 1.401-.84 3.642-.84 5.043 0zm13.1-7.627c1.401.77 1.401 2.099 0 2.869-1.401.769-3.642.769-5.043 0-1.401-.77-1.401-2.099 0-2.869s3.642-.77 5.043 0zm13.169-7.556c1.401.77 1.401 2.099 0 2.869-1.401.769-3.643.769-5.044 0-1.401-.77-1.401-2.099 0-2.869 1.401-.84 3.643-.84 5.044 0zm-52.607 15.183c1.401.769 1.401 2.099 0 2.868-1.401.77-3.643.77-5.044 0-1.401-.769-1.401-2.099 0-2.868 1.401-.84 3.643-.84 5.044 0zm13.17-7.627c1.401.77 1.401 2.099 0 2.869-1.4.769-3.642.769-5.043 0-1.401-.77-1.401-2.099 0-2.869s3.643-.77 5.043 0zm13.168-7.556c1.401.77 1.401 2.099 0 2.869-1.401.769-3.642.769-5.043 0-1.401-.77-1.401-2.099 0-2.869 1.401-.84 3.642-.84 5.043 0zm13.1-7.627c1.401.769 1.401 2.099 0 2.869-1.401.769-3.642.769-5.043 0-1.401-.77-1.401-2.1 0-2.869 1.401-.77 3.642-.77 5.043 0zm-52.677 15.114c1.401.77 1.401 2.1 0 2.869-1.401.77-3.642.77-5.043 0-1.401-.769-1.401-2.099 0-2.869 1.401-.769 3.642-.769 5.043 0zm10.647-4.128c1.974 0 3.573-.908 3.573-2.029s-1.599-2.029-3.573-2.029c-1.973 0-3.572.908-3.572 2.029s1.599 2.029 3.572 2.029zm15.622-11.055c1.401.77 1.401 2.099 0 2.869-1.401.769-3.643.769-5.044 0-1.401-.77-1.401-2.099 0-2.869s3.643-.77 5.044 0zm13.168-7.557c1.401.769 1.401 2.099 0 2.869-1.401.769-3.643.769-5.044 0-1.401-.77-1.401-2.1 0-2.869 1.401-.77 3.643-.77 5.044 0zm-39.437 7.557c1.401.77 1.401 2.099 0 2.869-1.401.769-3.642.769-5.043 0-1.401-.77-1.401-2.099 0-2.869s3.642-.77 5.043 0zm13.169-7.557c1.401.769 1.401 2.099 0 2.869-1.401.769-3.642.769-5.043 0-1.401-.77-1.401-2.1 0-2.869 1.401-.77 3.642-.77 5.043 0zm79.436 59.544c1.401.77 1.401 2.099 0 2.869-1.401.769-3.643.769-5.044 0-1.401-.77-1.401-2.099 0-2.869 1.471-.84 3.713-.84 5.044 0zm13.17-7.627c1.401.77 1.401 2.099 0 2.869s-3.643.77-5.044 0c-1.401-.77-1.401-2.099 0-2.869 1.401-.769 3.643-.769 5.044 0z" fill="#181940"/><path d="M373.712 410.655c-8.546-36.454-27.249-92.851-63.534-114.401-6.935-4.129-16.252-9.656-21.576-12.805l-2.311-24.21a55.044 55.044 0 006.164-3.498l.28-.14.771-.56c5.043-3.359 8.896-7.487 10.367-14.694l2.872-12.664 9.947-44.292c.35-1.399.701-2.798.981-4.268l.28-1.119-.07-.07a72.36 72.36 0 00.981-10.706c.42-38.903-26.339-86.483-59.822-106.285-15.341-9.096-27.88-11.265-38.737-6.647l-1.541.49-.841.42c-1.261.56-2.452 1.26-3.643 2.029l-28.299 15.603-1.541 3.149 13.799 10.355c-.42 2.87-.7 5.878-.7 9.097-.07 3.708-.07 6.507.35 10.355l.21.91.28 2.379c.28 2.099.561 3.288.981 5.388l11.208 70.6c1.821 12.594 8.546 29.527 17.092 42.122l-2.872 19.102c-5.254-3.149-14.711-9.306-21.575-13.365-14.22-8.396-24.588-8.886-34.114-4.268l-1.261.49-3.292 1.819s-.07 0-.07.07l-24.728 13.854 5.534 8.957c-3.012 5.667-5.534 11.545-7.565 17.072-4.273 11.895 4.623 32.047 17.652 39.674l98.069 58.075 4.273 2.519 75.793 44.851c.981 9.096 2.592 21.271 3.432 27.708.28 2.099 2.522 3.219 4.343 2.169l27.6-15.323c4.903-2.799 7.145-10.076 4.833-19.942z" fill="#FFD5AD"/><path d="M371.19 424.509c-8.546-36.454-27.249-92.85-63.535-114.401-6.935-4.128-16.251-9.656-21.575-12.805l-60.733 33.446-4.973-37.294 28.09-17.633 33.343-6.927 1.891-9.796c5.044-3.358 5.884-7.277 7.355-14.483l13.17-2.939 9.947-44.291c.35-1.4.7-2.799.98-4.269l.281-1.119-.07-.07c.56-3.359.91-6.857.98-10.706.491-38.903-26.338-86.483-59.822-106.285-15.34-9.096-27.879-11.265-38.737-6.647l-1.541.49-.84.42c-1.261.56-2.452 1.26-3.643 2.029l-28.3 15.603-1.541 3.149 13.8 10.356c-.421 2.868-.701 5.877-.701 9.096-.07 3.708-.07 6.507.351 10.355l.21.91.28 2.379c.28 2.099.56 3.289.981 5.388l11.207 70.6c1.822 12.594 8.546 29.527 17.092 42.122l-2.872 19.102c-5.253-3.149-14.71-9.306-21.575-13.364-14.22-8.397-24.587-8.887-34.114-4.269l-1.261.49-3.292 1.749s-.07 0-.07.07l-24.727 13.785 5.534 8.956c-3.012 5.667-5.534 11.545-7.566 17.073-4.273 11.895 4.624 32.046 17.653 39.673l98.068 58.075 4.273 2.519 75.793 44.851c.981 9.096 2.242-.35 3.083 6.018.28 2.099 2.521 3.218 4.343 2.169l20.104-1.47.84-9.236c4.904-2.729 14.15 6.997 11.839-2.869z" fill="#FEC"/><path d="M339.808 448.93c-.84 0-1.681-.21-2.521-.56a5.696 5.696 0 01-3.012-4.198c-.771-6.088-2.242-17.493-3.293-26.449L154.038 312.837c-13.939-8.256-23.396-29.877-18.773-42.822a125.268 125.268 0 017.005-16.093l-6.234-10.005 32.082-17.633c10.788-5.248 22.416-3.848 36.426 4.478 3.712 2.169 8.125 4.968 12.258 7.557 2.102 1.329 4.203 2.659 6.024 3.778l2.102-14.204c-8.266-12.454-15.061-29.317-16.952-42.332l-11.488-72.139c-.28-1.33-.49-2.379-.7-3.989l-.421-3.008c-.49-4.408-.49-7.557-.42-10.916 0-2.519.21-5.108.56-7.906l-14.29-10.776 2.802-5.807 29.001-16.024c1.12-.7 2.451-1.469 3.782-2.099l.631-.35 1.961-.7c11.348-4.827 24.797-2.588 40.839 6.928 34.114 20.221 61.503 68.921 61.082 108.594 0 3.009-.28 6.087-.7 9.306l.14.07-.56 3.009a79.912 79.912 0 01-.981 4.338l-12.819 56.816c-1.821 8.886-7.075 13.364-11.488 16.303l-.701.56a123.616 123.616 0 01-5.183 3.078l2.031 21.131 20.455 12.175c36.005 21.341 55.058 74.869 64.725 116.011 2.452 10.496.14 19.242-6.164 22.741l-27.6 15.323c-.77.42-1.751.7-2.662.7zM143.391 245.806l4.903 7.906-.7 1.33c-2.732 5.108-5.254 10.775-7.425 16.723-3.853 10.705 4.623 29.527 16.531 36.594l179.186 106.145.14 1.26c.98 9.026 2.592 21.271 3.432 27.638l28.09-15.113c4.063-2.309 5.534-8.957 3.642-17.003-7.705-32.886-26.128-91.242-62.343-112.723l-22.766-13.504-2.662-27.288 1.611-.77a62.957 62.957 0 005.884-3.359l.911-.629c5.534-3.709 8.196-7.487 9.386-13.155l12.819-56.956c.351-1.399.701-2.729.911-4.198l.14-1.119c.56-3.639.911-6.997.911-10.286.42-37.994-25.778-84.664-58.491-104.046-14.5-8.606-26.409-10.706-36.356-6.507l-2.101.84c-1.331.63-2.382 1.189-3.503 1.889l-27.949 15.743 13.309 10.006-.21 1.539a83.013 83.013 0 00-.701 8.746c-.07 3.849-.07 6.438.351 10.006l.14.56.35 2.659c.21 1.399.35 2.379.631 3.568l.35 1.679 11.208 70.671c1.821 12.664 8.546 29.107 16.671 41.072l.561.84-3.573 23.93-3.362-1.959a339.104 339.104 0 01-9.457-5.878c-4.133-2.589-8.476-5.318-12.118-7.487-12.539-7.417-22.346-8.746-31.662-4.198l-1.401.56-25.288 14.274z" fill="#181940"/><path d="M343.38 427.659c-8.546-36.454-27.249-92.851-63.534-114.402a10888.65 10888.65 0 00-21.575-12.804l-2.312-24.21c7.075-3.568 15.481-8.676 17.582-18.892l2.872-12.665 9.947-44.291c.351-1.399.701-2.799.981-4.268l.28-1.12-.07-.069c.561-3.359.911-6.858.981-10.706.42-38.904-26.339-86.483-59.822-106.285-33.483-19.802-61.013-4.408-61.433 34.495-.07 3.709-.07 6.508.35 10.356l.21.91.281 2.379c.28 2.099.56 3.288.98 5.387l11.208 70.6c1.821 12.595 8.546 29.528 17.092 42.123l-2.872 19.102c-5.254-3.149-14.71-9.306-21.575-13.365-36.426-21.551-56.179 12.035-65.496 37.924-4.273 11.895 4.623 32.047 17.652 39.673l98.069 58.076 4.273 2.519 97.719 57.865c12.819 7.697 22.135-1.609 18.212-18.332z" fill="#FFD5AD"/><path d="M333.713 451.379c-3.082 0-6.514-1.049-10.017-3.078l-199.99-118.53c-13.94-8.257-23.396-29.878-18.773-42.822 6.094-16.793 17.022-38.204 34.885-44.641 10.507-3.779 22.065-1.96 34.394 5.317 3.642 2.169 8.055 4.968 12.188 7.557a250.358 250.358 0 016.094 3.849l2.102-14.274c-8.266-12.455-15.061-29.318-16.952-42.333l-11.488-72.139a44.955 44.955 0 01-.701-3.918l-.42-3.009c-.49-4.408-.49-7.557-.42-10.915.21-19.802 7.215-34.496 19.684-41.493 12.468-6.997 28.65-5.318 45.742 4.828 34.114 20.221 61.503 68.921 61.082 108.594 0 2.939-.28 6.018-.7 9.236l.14.07-.63 3.079c-.281 1.399-.631 2.869-.981 4.338l-12.819 56.886c-2.102 10.286-9.737 15.813-17.372 19.802l2.031 21.131 20.455 12.175c36.005 21.341 55.058 74.868 64.795 116.01 2.312 9.796.49 18.053-4.903 22.041-2.312 1.47-4.764 2.239-7.426 2.239zM150.815 245.666c-3.222 0-6.304.56-9.246 1.61-15.971 5.737-26.058 25.679-31.732 41.492-3.853 10.705 4.623 29.527 16.531 36.594l200.06 118.46c4.623 2.729 8.686 3.079 11.488 1.05 3.573-2.659 4.764-9.026 2.942-16.653-7.705-32.886-26.128-91.241-62.343-112.722l-22.696-13.505-2.662-27.288 1.611-.77c7.355-3.638 14.36-8.256 16.181-17.073l12.819-56.955c.351-1.4.701-2.729.911-4.129l.21-1.119c.56-3.639.911-6.997.911-10.286.42-37.994-25.778-84.664-58.491-104.046-15.341-9.096-29.701-10.775-40.489-4.758-10.787 6.018-16.811 19.172-17.021 37.014-.071 3.849-.071 6.438.35 10.006l.14.56.35 2.659c.21 1.399.35 2.379.631 3.568l.35 1.68 11.208 70.67c1.821 12.664 8.546 29.107 16.671 41.002l.561.84-3.573 23.93-3.362-1.959c-2.522-1.47-5.884-3.639-9.527-5.948-4.063-2.589-8.406-5.317-12.048-7.487-7.285-4.268-14.22-6.437-20.735-6.437z" fill="#181940"/><path d="M319.074 172.478l-2.312-26.309-30.401 17.073 3.502 18.192-13.659 65.772-.841.49-3.502 14.204-11.278 12.455-4.693 1.889 2.311 24.14 30.402-16.933-2.382-24.21 13.73-7.767 4.693-15.883 1.611-5.597 12.819-57.516zm17.091 228.591l29.281-17.352 7.845 21.691 1.121 13.644-2.382 10.356-30.751 16.513 3.012-12.735-6.095-26.869-2.031-5.248z" fill="#181940"/><path d="M454.407 106.285c0-37.714-28.299-84.035-61.713-99.078-12.398-5.598-22.626-6.088-31.242-1.4l-1.05.49h-.07c-.071.07-.141.07-.211.14L333.012 22.39c-1.26.7-1.611 2.38-.7 3.569l11.418 15.393c-.35 26.939 13.94 58.565 34.394 80.046v22.671c0 4.198 4.343 8.956 7.075 7.696l18.283-8.256 6.584 11.755c.701 1.259 2.382 1.749 3.643.98l24.307-14.135v-.069c10.087-5.598 16.391-17.983 16.391-35.755z" fill="#FFD5AD"/><path d="M451.815 119.579c0-37.714-28.3-84.035-61.714-99.078-12.398-5.598-22.625-6.088-31.241-1.4l-1.051.56h-.07c-.07.07-.14.07-.21.14L330.42 35.684c-1.261.7-1.611 2.38-.701 3.569l11.418 15.393c-.35 26.939 13.94 58.565 34.394 80.046v22.671c0 4.198 14.921-5.108 17.653-6.368l7.705 5.808 7.285-6.857 17.022-.35V139.59c10.017-5.667 26.619-2.239 26.619-20.011z" fill="#FEC"/><path d="M412.308 159.252c-.49 0-.911-.07-1.401-.21-1.401-.35-2.522-1.259-3.222-2.519l-5.464-9.656-16.111 7.277c-1.682.77-3.643.49-5.534-.699-2.592-1.68-5.184-5.458-5.184-9.376v-21.621c-21.085-22.46-34.464-53.738-34.394-80.256L330.14 27.498a5.05 5.05 0 01-.91-3.989c.28-1.399 1.191-2.588 2.381-3.358l28.58-16.653c9.247-5.038 20.245-4.618 33.484 1.33 33.693 15.113 63.254 62.553 63.254 101.457 0 17.422-5.814 30.577-16.461 37.294l-1.331.769-24.307 14.134c-.701.49-1.611.77-2.522.77zm-7.846-19.102l7.776 13.854 24.377-14.134c9.737-5.457 15.131-17.422 15.131-33.585 0-37.155-28.09-82.286-60.173-96.7-11.698-5.247-21.154-5.737-28.93-1.469l-1.121.56-27.249 16.023 11.979 15.883v.91c-.351 25.26 13.169 56.676 33.693 78.227l.701.77v23.719c0 2.659 2.592 5.318 3.502 5.318l20.314-9.376z" fill="#181940"/><path d="M427.72 121.817c0-37.714-28.3-84.034-61.714-99.078-24.867-11.195-45.321.07-48.614 26.799-3.432 28.408 11.629 63.953 33.974 87.393v22.67c0 4.199 4.343 8.957 7.075 7.697l21.645-9.796c26.899 11.196 47.634-3.498 47.634-35.685z" fill="#FFD5AD"/><path d="M357.46 170.096c-1.121 0-2.312-.35-3.502-1.119-2.592-1.679-5.184-5.458-5.184-9.376V137.98c-23.326-24.91-37.266-61.224-33.974-88.722 1.681-13.645 7.776-24.14 17.302-29.458 9.597-5.388 21.996-5.178 34.955.63 33.693 15.113 63.254 62.553 63.254 101.457 0 17.003-5.674 30.157-15.901 37.014-9.177 6.088-21.295 6.647-34.324 1.539l-20.595 9.307a6.538 6.538 0 01-2.031.349zm-9.737-149.037c-4.763 0-9.246 1.05-13.029 3.219-7.986 4.478-13.169 13.574-14.64 25.54-3.222 26.308 10.507 61.363 33.273 85.223l.701.77v23.72c0 2.659 2.591 5.318 3.502 5.318l22.556-10.216 1.051.42c11.768 4.898 22.555 4.618 30.471-.63 8.756-5.808 13.589-17.423 13.589-32.676 0-37.154-28.089-82.285-60.172-96.7-6.094-2.658-11.978-3.988-17.302-3.988z" fill="#181940"/><path d="M422.886 92.92l26.899-15.604 4.623 13.924v23.44l-2.592 12.455-19.683 19.382-15.902 7.486 11.489-23.16v-24.559l-4.834-13.365z" fill="#181940"/><path d="M374.342 105.653l-5.183-37.924c-.07-.63-.14-1.26-.14-1.819 0-5.038 2.802-5.877 8.546-2.589 5.674 3.289 8.476 7.417 8.476 12.385 0 .7-.071 1.26-.141 1.75l-5.183 31.906-6.375-3.709zm3.153 9.027c4.973 2.868 7.425 7.136 7.425 12.874s-2.452 7.137-7.425 4.268c-4.974-2.869-7.426-7.137-7.426-12.874 0-5.738 2.522-7.137 7.426-4.268z" fill="#FEEDCC"/><path d="M368.178 100.966l-5.183-37.924c-.07-.63-.141-1.26-.141-1.82 0-5.037 2.873-5.877 8.547-2.588 5.674 3.288 8.546 7.417 8.546 12.385 0 .7-.071 1.259-.141 1.749l-5.183 31.906-6.445-3.708zm3.152 8.956c4.974 2.869 7.426 7.137 7.426 12.875 0 5.737-2.452 7.137-7.426 4.268-4.973-2.869-7.425-7.137-7.425-12.875-.07-5.667 2.452-7.137 7.425-4.268z" fill="#15100C"/><path d="M167.206 337.255c0-44.991-33.764-100.338-73.622-118.25-14.78-6.647-27.039-7.277-37.266-1.679l-1.26.629h-.071c-.07.07-.14.07-.28.14l-32.363 18.962c-1.47.84-1.891 2.869-.84 4.199l13.52 18.472c-.491 32.186 16.6 69.9 41.048 95.509v27.079c0 5.038 5.183 10.705 8.406 9.236l21.785-9.866 7.845 14.064a3.131 3.131 0 004.343 1.19l29.001-16.863v-.07c12.188-6.787 19.754-21.551 19.754-42.752z" fill="#FFD5AD"/><path d="M164.054 353.139c0-44.991-33.763-100.338-73.621-118.25-14.78-6.647-27.04-7.277-37.266-1.68l-1.261.63h-.07c-.07.07-.14.07-.28.14l-32.363 18.962c-1.471.84-1.892 2.869-.84 4.198l13.589 18.403c-.49 32.186 16.601 69.9 41.049 95.509v27.079c0 5.038 17.792-6.088 21.084-7.627l9.177 6.927 8.686-8.187 20.314-.419v-11.895c12.048-6.648 31.802-2.589 31.802-23.79z" fill="#FEC"/><path d="M116.981 400.439a6.92 6.92 0 01-1.682-.21c-1.611-.42-3.012-1.54-3.852-3.009l-6.515-11.545-19.193 8.676c-2.032.91-4.343.63-6.585-.839-3.082-1.96-6.234-6.508-6.234-11.196v-25.819c-25.148-26.799-41.12-64.163-41.05-95.719l-12.959-17.563c-.98-1.399-1.401-3.149-1.05-4.758.35-1.679 1.4-3.079 2.871-3.988l34.114-19.872c10.998-6.017 24.097-5.527 39.998 1.609 40.208 18.053 75.513 74.659 75.513 121.049 0 20.782-6.935 36.525-19.614 44.501l-1.541.98-29 16.863c-1.051.56-2.172.84-3.222.84zm-9.387-22.811l9.247 16.513 29.14-16.933c11.628-6.577 18.073-20.781 18.073-40.093 0-44.291-33.554-98.238-71.8-115.381-13.94-6.227-25.218-6.857-34.535-1.749l-1.33.7-32.504 19.102 14.29 18.961v1.05c-.42 30.157 15.762 67.661 40.209 93.341l.84.909v28.268c0 3.149 3.082 6.298 4.203 6.368l24.167-11.056z" fill="#181940"/><path d="M135.265 355.727c0-44.991-33.764-100.338-73.621-118.25-29.701-13.365-54.078.07-58.001 31.976-4.133 33.866 13.87 76.268 40.558 104.256v27.079c0 5.037 5.184 10.705 8.406 9.236l25.778-11.685c32.153 13.364 56.88-4.129 56.88-42.612z" fill="#FFD5AD"/><path d="M51.486 413.382c-1.331 0-2.802-.42-4.203-1.329-3.082-1.959-6.235-6.507-6.235-11.195v-25.82C13.168 345.301-3.432 301.919.56 269.173c1.961-16.303 9.317-28.828 20.595-35.195 11.487-6.437 26.268-6.227 41.749.7 40.208 18.052 75.513 74.658 75.513 121.049 0 20.361-6.725 36.034-18.984 44.151-10.927 7.277-25.428 7.907-40.908 1.819l-24.588 11.195c-.77.35-1.61.49-2.451.49zM39.858 235.517c-5.744 0-10.998 1.26-15.551 3.849-9.527 5.388-15.761 16.233-17.513 30.507-3.852 31.417 12.47 73.259 39.718 101.737l.84.91v28.268c0 3.148 3.083 6.367 4.204 6.367l26.899-12.175 1.26.49c14.01 5.807 26.899 5.527 36.356-.77 10.437-6.997 16.181-20.851 16.181-38.973 0-44.292-33.553-98.239-71.8-115.382-7.215-3.218-14.22-4.828-20.594-4.828z" fill="#181940"/><path d="M129.59 321.373l32.083-18.683 5.533 16.583v27.989l-3.152 14.833-23.466 23.161-18.984 8.956 13.66-27.639v-29.317l-5.674-15.883z" fill="#181940"/><path d="M67.037 342.291c6.094 3.498 9.176 8.816 9.176 15.883 0 7.067-3.082 8.816-9.176 5.318-6.095-3.499-9.177-8.817-9.177-15.884s3.013-8.816 9.177-5.317zm-4.553-11.546v-19.731l7.425 4.338c1.05 6.577 3.222 10.845 6.654 12.735 4.554 2.588 6.795-.98 6.795-10.776 0-14.974-2.872-24.07-8.546-27.358-4.413-2.519-6.654-.14-6.654 7.207 0 1.889.21 4.828.63 8.746l-8.056-7.417c-.63-3.708-.91-6.297-.91-7.837 0-10.565 5.954-12.454 17.862-5.597 15.13 8.746 22.696 21.481 22.696 38.274 0 6.927-1.891 11.755-5.604 14.483-3.712 2.729-8.195 2.659-13.45-.349-3.572-2.03-7.144-5.668-10.927-10.776v8.746l-7.915-4.688z" fill="#FEEDCC"/><path d="M60.592 336.415c6.095 3.498 9.177 8.816 9.177 15.883 0 7.067-3.082 8.816-9.177 5.318-6.094-3.499-9.176-8.817-9.176-15.884s3.082-8.816 9.176-5.317zm-4.553-11.546v-19.731l7.425 4.338c1.051 6.577 3.223 10.845 6.655 12.735 4.553 2.588 6.795-.98 6.795-10.776 0-14.974-2.872-24.07-8.546-27.358-4.413-2.519-6.655-.14-6.655 7.207 0 1.889.21 4.828.63 8.746l-8.055-7.417c-.63-3.708-.91-6.297-.91-7.837 0-10.565 5.954-12.454 17.862-5.597 15.13 8.746 22.696 21.481 22.696 38.274 0 6.927-1.892 11.755-5.604 14.483-3.713 2.729-8.196 2.659-13.45-.349-3.572-2.03-7.145-5.668-10.927-10.776v8.746l-7.916-4.688z" fill="#15100C"/></svg>