<svg width="76" height="76" fill="none" xmlns="http://www.w3.org/2000/svg"><path d="M72.438 28.5v11.875l-10.688 4.75v4.75l-3.563 2.375v2.375l1.188 3.563-1.188 1.187-4.75-3.563v-4.75H47.5l-5.938-7.124h-7.124v-2.376l4.75-4.75h3.562l3.563-5.937h5.937l2.375-2.375h17.813zm-68.875 0v11.875l4.75 2.375v7.125L14.25 57h2.375v-7.125l7.125-3.563v-7.124l-2.375-2.376 2.375-3.562V28.5H3.562zM28.5 27.313v5.937L30.875 38l5.938-5.938v-4.75H28.5zm-7.125 30.875l2.375 2.374v11.876h2.375l4.75-10.688V57l-3.563-5.938-5.937 2.376v4.75zm17.813-9.5l5.937 7.124h3.563v4.75l-4.75 8.313h-3.563L38 60.562l-5.938-9.5v-2.374h7.126zm21.375 14.25l2.374-2.376h4.75l2.376 2.376v7.124H66.5L60.562 66.5v-3.563z" fill="#CE8C4E" fill-opacity=".48"/><path d="M23.75 3.563h28.5v19h-28.5v-19z" fill="#E8C8AA"/><path d="M46.313 19a2.375 2.375 0 012.374-2.375V9.5a2.375 2.375 0 01-2.374-2.375H29.686A2.375 2.375 0 0127.313 9.5v7.125A2.375 2.375 0 0129.688 19h16.625z" fill="#fff"/><path d="M38 15.438a2.375 2.375 0 100-4.75 2.375 2.375 0 000 4.75zM14.25 40.375a2.375 2.375 0 100-4.75 2.375 2.375 0 000 4.75zm47.5-1.187a2.375 2.375 0 100-4.75 2.375 2.375 0 000 4.75z" fill="#fff"/><path d="M53.438 22.563v-19a1.187 1.187 0 00-1.188-1.188h-28.5a1.188 1.188 0 00-1.188 1.188v19a1.188 1.188 0 001.188 1.187h28.5a1.188 1.188 0 001.188-1.188zm-2.376-1.188H24.939V4.75h26.125v16.625z" fill="#181940"/><path d="M27.313 17.813A1.19 1.19 0 0128.5 19a1.188 1.188 0 001.188 1.188h16.625A1.188 1.188 0 0047.5 19a1.19 1.19 0 011.188-1.188 1.188 1.188 0 001.187-1.187V9.5a1.187 1.187 0 00-1.188-1.188A1.189 1.189 0 0147.5 7.125a1.187 1.187 0 00-1.188-1.188H29.689A1.188 1.188 0 0028.5 7.125a1.19 1.19 0 01-1.188 1.188A1.188 1.188 0 0026.125 9.5v7.125a1.188 1.188 0 001.188 1.188zm1.187-7.329a3.58 3.58 0 002.172-2.171h14.656a3.58 3.58 0 002.172 2.171v5.157a3.58 3.58 0 00-2.172 2.171H30.671a3.58 3.58 0 00-2.171-2.171v-5.157z" fill="#181940"/><path d="M38 16.625a3.568 3.568 0 003.358-2.375h2.58v-2.375h-2.58a3.562 3.562 0 00-6.716 0h-2.58v2.375h2.58A3.568 3.568 0 0038 16.625zm0-4.75a1.187 1.187 0 110 2.374 1.187 1.187 0 010-2.374zm34.438 15.438h-7.126v2.375h5.938v9.915l-9.982 4.437a1.188 1.188 0 00-.706 1.085v4.114l-3.033 2.023a1.187 1.187 0 00-.529.988v2.375c0 .128.02.255.061.376l.909 2.726-3.345-2.508v-4.157a1.188 1.188 0 00-1.188-1.187h-5.38l-5.582-6.698a1.188 1.188 0 00-.913-.427h-5.937v-.696L39.679 38h3.071a1.188 1.188 0 001.018-.577l3.217-5.36h5.265c.315 0 .617-.126.84-.348l2.027-2.027h3.07v-2.375h-3.562a1.19 1.19 0 00-.84.347l-2.027 2.027h-5.446a1.188 1.188 0 00-1.018.577l-3.216 5.361h-2.89c-.315 0-.617.125-.84.348l-4.75 4.75a1.187 1.187 0 00-.348.84v2.374a1.188 1.188 0 001.188 1.188h6.568l5.582 6.698a1.188 1.188 0 00.912.427h4.75v3.563a1.188 1.188 0 00.475.95l4.75 3.562a1.188 1.188 0 001.552-.11l1.188-1.188a1.187 1.187 0 00.286-1.215l-1.126-3.38v-1.547l3.034-2.022a1.187 1.187 0 00.529-.988v-3.978l9.982-4.437a1.188 1.188 0 00.705-1.085V28.5a1.188 1.188 0 00-1.188-1.188zM3.031 41.437l4.094 2.047v6.391c0 .278.097.547.275.76l5.938 7.125a1.188 1.188 0 00.912.428h2.375A1.188 1.188 0 0017.813 57v-6.391l6.468-3.234a1.187 1.187 0 00.657-1.063v-7.124a1.19 1.19 0 00-.348-.84l-1.687-1.687 1.835-2.752c.13-.195.2-.425.2-.659V28.5a1.188 1.188 0 00-1.188-1.188h-5.938v2.375h4.75v3.204l-2.175 3.263a1.187 1.187 0 00.148 1.498l2.027 2.027v5.9l-6.468 3.234a1.187 1.187 0 00-.657 1.062v5.938h-.63L9.5 49.444V42.75a1.188 1.188 0 00-.656-1.062L4.75 39.64v-9.953h5.938v-2.375H3.561A1.187 1.187 0 002.375 28.5v11.875a1.188 1.188 0 00.656 1.062zM38 32.063v-4.75a1.188 1.188 0 00-1.188-1.188H28.5a1.188 1.188 0 00-1.188 1.188v5.937c0 .184.043.366.126.531l2.375 4.75a1.186 1.186 0 001.902.309l5.937-5.938c.223-.223.348-.525.348-.84zm-2.375-.492L31.2 35.995l-1.512-3.025V28.5h5.937v3.07z" fill="#181940"/><path d="M23.75 73.625h2.375a1.188 1.188 0 001.085-.705l4.75-10.688c.068-.152.102-.316.102-.482V57c0-.215-.058-.426-.169-.611l-3.562-5.938a1.188 1.188 0 00-1.46-.491l-5.937 2.375a1.187 1.187 0 00-.747 1.102v4.75c0 .315.126.617.348.84l2.027 2.027v11.383a1.188 1.188 0 001.188 1.188zm-1.188-19.384l4.253-1.7 2.872 4.788v4.169l-4.334 9.752h-.416V60.562c0-.314-.125-.617-.347-.84l-2.027-2.026V54.24zm16.671 14.96a1.187 1.187 0 001.142.862h3.563a1.187 1.187 0 001.03-.599l4.75-8.312c.103-.18.157-.383.157-.59v-4.75a1.188 1.188 0 00-1.188-1.187h-3.006L40.1 47.927a1.188 1.188 0 00-.913-.427h-7.124a1.188 1.188 0 00-1.188 1.188v2.374c0 .223.063.441.18.63l5.85 9.358 2.328 8.151zM33.25 49.875h5.381l5.582 6.698a1.188 1.188 0 00.912.427H47.5v3.247l-4.252 7.44h-1.977l-2.13-7.45a1.186 1.186 0 00-.134-.304l-5.757-9.211v-.847zM65.889 71.08c.185.112.396.17.611.17h3.563a1.188 1.188 0 001.187-1.188v-7.124c0-.316-.125-.617-.348-.84l-2.375-2.375a1.188 1.188 0 00-.84-.348h-4.75c-.314 0-.616.125-.84.348l-2.374 2.375a1.187 1.187 0 00-.348.84V66.5a1.188 1.188 0 00.577 1.018l5.937 3.563zm-4.139-7.65l1.68-1.68h3.766l1.679 1.68v5.445h-2.046l-5.079-3.047v-2.399zM20.188 14.25v-2.375H14.25a1.188 1.188 0 00-1.188 1.188v21.579a3.562 3.562 0 102.376 0V14.25h4.75zM14.25 39.188a1.187 1.187 0 110-2.375 1.187 1.187 0 010 2.374zm47.5-27.313h-5.938v2.375h4.75v19.204a3.562 3.562 0 102.376 0V13.062a1.188 1.188 0 00-1.188-1.187zm0 26.125a1.187 1.187 0 110-2.374 1.187 1.187 0 010 2.374z" fill="#181940"/></svg>