<svg width="252" height="251" fill="none" xmlns="http://www.w3.org/2000/svg"><path d="M213.335 236.509H28.823c-14.332 0-25.908-11.577-25.908-25.911V28.826c0-14.334 11.576-25.911 25.908-25.911h184.433c14.332 0 25.909 11.577 25.909 25.911v181.772c.078 14.334-11.577 25.911-25.83 25.911z" fill="#181940"/><path d="M226.091 251H41.659c-14.333 0-25.909-11.578-25.909-25.911V43.395c0-14.334 11.576-25.911 25.909-25.911H226.09c14.334 0 25.91 11.576 25.91 25.911v181.772C252 239.422 240.424 251 226.091 251z" fill="#FFD5AD"/><path d="M213.334 239.423H28.822C12.915 239.423 0 226.506 0 210.597V28.825C0 12.916 12.915 0 28.823 0h184.432c15.908 0 28.822 12.916 28.822 28.825v181.772c.079 15.909-12.836 28.826-28.743 28.826zM28.822 5.907c-12.678 0-22.916 10.317-22.916 22.918v181.772c0 12.68 10.317 22.919 22.917 22.919h184.432c12.679 0 22.916-10.317 22.916-22.919V28.825c0-12.68-10.316-22.918-22.916-22.918H28.822z" fill="#181940"/><path d="M143.875 119.159l63.63-14.334c-4.961-22.052-21.026-39.851-41.974-47.254l-21.656 61.588z" fill="#181940"/><path d="M136.946 105.535l24.255-68.756 2.598.945c21.893 7.719 38.667 26.542 43.707 49.224l.63 2.678-71.19 15.909zm27.562-61.746l-19.136 54.264 56.149-12.602c-5.04-18.823-18.979-34.417-37.013-41.662z" fill="#181940"/><path d="M121.747 139.715l21.656-61.51c-6.772-2.362-14.096-3.78-21.656-3.78-36.067 0-65.284 29.22-65.284 65.29 0 36.071 29.217 65.29 65.284 65.29 36.068 0 65.284-29.219 65.284-65.29 0-4.883-.551-9.687-1.654-14.333l-63.63 14.333z" fill="#181940"/><path d="M119.07 190.356c-37.485 0-68.04-30.479-68.04-68.046 0-37.489 30.476-68.047 68.04-68.047 7.639 0 15.199 1.34 22.601 3.938l2.599.866-20.948 59.462 61.504-13.861.63 2.678a68.939 68.939 0 011.654 14.885c-.079 37.646-30.555 68.125-68.04 68.125zm0-130.58c-34.493 0-62.528 28.038-62.528 62.534 0 34.495 28.035 62.533 62.528 62.533 34.492 0 62.527-28.038 62.527-62.533 0-3.623-.315-7.325-1.023-11.026l-65.757 14.806 22.365-63.557c-5.906-1.812-12.048-2.757-18.112-2.757z" fill="#181940"/></svg>