<svg width="76" height="76" fill="none" xmlns="http://www.w3.org/2000/svg"><path d="M72.438 25.466c0 .424-.158.833-.441 1.149l-4.664 5.182-3.238 3.598a7.87 7.87 0 01-11.826-.144L47.5 29.688a4.916 4.916 0 01-1.937 5.645l-.438.292 1.188 7.125H29.686l1.188-7.125-.438-.292a4.915 4.915 0 01-1.937-5.645l-4.77 5.563a7.868 7.868 0 01-11.825.144l-3.238-3.598-4.664-5.182a1.711 1.711 0 01-.44-1.15 1.718 1.718 0 011.715-1.715c.43 0 .85.127 1.207.365l3.015 2.01.782-1.563a1.467 1.467 0 012.78.656V28.5l4.75 2.375 6.894-7.878a4.747 4.747 0 013.574-1.622h19.44a4.744 4.744 0 013.574 1.622l6.894 7.878 4.75-2.375v-3.282a1.467 1.467 0 012.78-.656l.782 1.563 3.015-2.01a2.171 2.171 0 011.207-.365 1.718 1.718 0 011.716 1.716z" fill="#FFCEB6"/><path d="M67.333 31.797l-3.238 3.598a7.87 7.87 0 01-11.826-.144L47.5 29.688a4.916 4.916 0 01-1.937 5.645l-.438.292 1.188 7.125H29.686l1.188-7.125-.438-.292a4.916 4.916 0 01-1.937-5.645l-4.77 5.563a7.87 7.87 0 01-11.825.144l-3.238-3.598 4.395-3.297 4.75 2.375 6.894-7.878a4.745 4.745 0 013.574-1.622h19.44a4.745 4.745 0 013.574 1.622l6.894 7.878 4.75-2.375 4.395 3.297z" fill="#fff"/><path d="M58.188 47.5v3.563l-5.938 8.312v14.25h-28.5v-14.25l-5.938-8.313V47.5h40.376zm2.375-4.75H15.437v4.75h45.126v-4.75z" fill="#E8C8AA"/><path d="M28.5 73.625V66.5a2.375 2.375 0 002.375-2.375h14.25A2.375 2.375 0 0047.5 66.5v7.125h-19z" fill="#E8C8AA"/><path d="M41.563 21.375L38 28.5l-3.563-7.125h7.126z" fill="#FFCEB6"/><path d="M34.438 17.813a7.125 7.125 0 100-14.25 7.125 7.125 0 000 14.25z" fill="#E8C8AA"/><path d="M42.75 15.438v-3.563a4.75 4.75 0 10-9.5 0v3.563h9.5z" fill="#E8C8AA"/><path d="M38 22.563a4.75 4.75 0 01-4.75-4.75v-2.375l3.563-3.563a5.21 5.21 0 004.942 3.563h.995v2.374a4.75 4.75 0 01-4.75 4.75z" fill="#FFCEB6"/><path d="M70.721 22.563a3.354 3.354 0 00-1.865.564l-1.895 1.264-.18-.36a2.655 2.655 0 00-5.031 1.187v2.548l-3.273 1.637-6.289-7.188a5.937 5.937 0 00-4.468-2.027h-4.28a5.902 5.902 0 00.498-2.375v-5.938a5.92 5.92 0 00-1.755-4.21 8.312 8.312 0 10-10.057 11.008 5.89 5.89 0 00.434 1.515h-4.28a5.938 5.938 0 00-4.468 2.027l-6.289 7.188-3.273-1.637v-2.548a2.656 2.656 0 00-5.03-1.188l-.18.36-1.896-1.263a3.352 3.352 0 00-1.865-.564 2.904 2.904 0 00-2.159 4.846l7.903 8.78a9.058 9.058 0 0013.61-.164l2.664-3.11a6.105 6.105 0 002.281 3.267l-.896 5.38H15.438a1.188 1.188 0 00-1.188 1.188v4.75a1.187 1.187 0 001.188 1.188h1.187v2.374c0 .248.077.49.221.69l5.716 8.004v13.869h2.375V60.562h5.938v-2.374h-6.514L19 50.681v-1.995h38v1.995l-5.361 7.505H42.75v2.376h8.313v13.062h2.374v-13.87l5.717-8.002c.144-.202.221-.443.221-.69v-2.376h1.188A1.188 1.188 0 0061.75 47.5v-4.75a1.188 1.188 0 00-1.188-1.188H47.32l-.897-5.38a6.105 6.105 0 002.28-3.267l2.666 3.11a9.06 9.06 0 0013.61.164l7.902-8.78a2.904 2.904 0 00-2.159-4.846zM43.477 23.75h-1.774l.593-1.188h.785l.396 1.188zm-10.559-1.188h.786l.593 1.188h-1.774l.395-1.188zm8.645-10.687v2.367a4.015 4.015 0 01-3.624-2.743 1.187 1.187 0 00-1.966-.464l-1.535 1.536v-.696a3.563 3.563 0 017.124 0zm-7.126 4.054l2.058-2.057a6.389 6.389 0 005.068 2.75v1.19a3.562 3.562 0 11-7.126 0V15.93zM38 25.845l-1.1-2.199a5.88 5.88 0 002.2 0L38 25.845zm-2.222.867l1.035 2.068v3.978l-3.183-3.182 2.148-2.864zm3.41 2.068l1.034-2.068 2.148 2.864-3.182 3.182V28.78zM28.5 10.687a5.937 5.937 0 019.498-4.75 5.944 5.944 0 00-5.935 5.938v4.258a5.916 5.916 0 01-3.563-5.445zM4.75 25.468a.53.53 0 01.529-.53c.195 0 .386.058.548.166l3.014 2.01a1.187 1.187 0 001.721-.457l.782-1.563a.28.28 0 01.531.125v2.688l-3.052 2.29-3.937-4.376a.528.528 0 01-.136-.354zm54.625 20.846h-42.75v-2.376h42.75v2.376zM63.212 34.6a6.682 6.682 0 01-10.041-.121l-4.77-5.564a1.187 1.187 0 00-2.028 1.148 3.737 3.737 0 01-1.469 4.282l-.438.292a1.188 1.188 0 00-.512 1.183l.957 5.742H31.089l.957-5.742a1.188 1.188 0 00-.512-1.183l-.438-.292a3.737 3.737 0 01-1.47-4.282 1.188 1.188 0 00-2.028-1.148l-4.769 5.564a6.683 6.683 0 01-10.041.121l-2.37-2.633 2.77-2.077 4.093 2.047a1.187 1.187 0 001.425-.28l6.893-7.878a3.56 3.56 0 012.681-1.216h2.135l-.667 1.999a1.187 1.187 0 001.127 1.563h2.375l-2.138 2.85a1.188 1.188 0 00.11 1.552l5.938 5.938a1.188 1.188 0 001.68 0l5.937-5.938a1.187 1.187 0 00.11-1.552l-2.137-2.85h2.375a1.188 1.188 0 001.127-1.563l-.667-2h2.135a3.563 3.563 0 012.68 1.217l6.894 7.878a1.188 1.188 0 001.425.28l4.093-2.047 2.77 2.078-2.37 2.632zm7.902-8.78l-3.937 4.375-3.052-2.289v-2.688a.28.28 0 01.531-.125l.782 1.563a1.187 1.187 0 001.72.457l3.015-2.01a.985.985 0 01.548-.166.529.529 0 01.393.883z" fill="#181940"/><path d="M40.375 58.188H38v2.374h2.375v-2.374zm-10.687 5.937a1.19 1.19 0 01-1.188 1.188 1.188 1.188 0 00-1.188 1.187v7.125h2.375v-6.141a3.58 3.58 0 002.172-2.171h12.282a3.58 3.58 0 002.172 2.171v6.141h2.374V66.5a1.188 1.188 0 00-1.187-1.188 1.19 1.19 0 01-1.188-1.187 1.188 1.188 0 00-1.187-1.188h-14.25a1.188 1.188 0 00-1.188 1.188z" fill="#181940"/></svg>