<svg width="76" height="76" fill="none" xmlns="http://www.w3.org/2000/svg"><path d="M10.688 19a3.563 3.563 0 100-7.125 3.563 3.563 0 000 7.125z" fill="#fff"/><path d="M10.094 19v-2.375a2.375 2.375 0 114.75 0V19h-4.75z" fill="#fff"/><path d="M17.813 59.375l3.562 3.563v1.187H3.562v-1.188l3.563-3.562h10.688z" fill="#D1E4FF"/><path d="M16.625 40.375h1.188a3.563 3.563 0 003.562-3.563v-2.374h-4.75v5.937zm-8.312 0H7.125a3.562 3.562 0 01-3.563-3.563v-2.374h4.75v5.937z" fill="#fff"/><path d="M21.375 34.438v-9.5a3.563 3.563 0 00-3.563-3.563H7.126a3.562 3.562 0 00-3.563 3.563v9.5h17.813z" fill="#E8C8AA"/><path d="M58.188 59.375h9.5l3.562 3.563v1.187H54.625v-1.188l3.563-3.562z" fill="#D1E4FF"/><path d="M58.188 45.125h9.5v14.25h-9.5v-14.25zm-4.75-14.25V38A3.563 3.563 0 0057 41.563h1.188V30.874h-4.75z" fill="#fff"/><path d="M67.688 21.375a4.75 4.75 0 014.75 4.75v4.75h-4.75v3.563h-9.5v-3.563h-4.75v-4.75a4.75 4.75 0 014.75-4.75h9.5z" fill="#E8C8AA"/><path d="M65.313 19v-2.375a2.375 2.375 0 10-4.75 0V19h4.75zM30.875 36.813h14.25v22.562h-14.25V36.812z" fill="#fff"/><path d="M45.125 41.563h1.188A3.563 3.563 0 0049.874 38v-2.375h-4.75v5.938zm-14.25 0h-1.188A3.563 3.563 0 0126.125 38v-2.375h4.75v5.938z" fill="#fff"/><path d="M26.125 35.625v-9.5a4.75 4.75 0 014.75-4.75h14.25a4.75 4.75 0 014.75 4.75v9.5h-4.75v1.188h-14.25v-1.188h-4.75z" fill="#E8C8AA"/><path d="M45.125 59.375l2.375 3.563v1.187h-19v-1.188l2.375-3.562h14.25z" fill="#D1E4FF"/><path d="M12.469 22.563a2.375 2.375 0 01-2.375-2.375V19l1.187-1.188L14.844 19v1.188a2.375 2.375 0 01-2.375 2.375zm45.719 11.875h9.5v10.687h-9.5V34.437zm4.75-11.875a2.375 2.375 0 01-2.376-2.375V19l2.376-1.188h2.374v2.375a2.375 2.375 0 01-2.374 2.375zM8.313 34.438L5.937 46.312H19l-2.375-11.874H8.312zM7.125 46.313h10.688v13.062H7.124V46.312zM38 22.563a2.375 2.375 0 01-2.375-2.375V19l1.188-1.188h3.562v2.375A2.375 2.375 0 0138 22.563z" fill="#fff"/><path d="M40.375 17.813l.696-.696a1.68 1.68 0 00-1.188-2.867H38a2.375 2.375 0 00-2.375 2.375V19l1.188-1.188h3.562zm32.063 13.062V38a3.563 3.563 0 01-3.563 3.563h-1.188V30.874h4.75z" fill="#fff"/><path d="M27.512 62.279c-.13.195-.2.424-.2.658v1.188a1.187 1.187 0 001.188 1.188h19a1.187 1.187 0 001.188-1.188v-1.188c0-.234-.07-.463-.2-.658l-2.175-3.264V42.75a4.755 4.755 0 004.75-4.75V26.125a5.944 5.944 0 00-5.938-5.938h-3.563v-1.883l.348-.348a2.866 2.866 0 00-2.027-4.893H38a3.567 3.567 0 00-3.563 3.562v3.563h-3.562a5.944 5.944 0 00-5.938 5.937V38a4.755 4.755 0 004.75 4.75v16.265l-2.175 3.264zM32.062 38h11.876v20.188h-4.75V41.561h-2.376v16.626h-4.75V38zm-.551 22.563h5.302v2.374h-6.886l1.584-2.374zm7.677 2.374v-2.374h5.301l1.584 2.374h-6.886zm7.124-22.562v-3.563h2.376V38a2.378 2.378 0 01-2.376 2.375zm-8.312-19a1.19 1.19 0 01-1.188-1.188v-.695l.492-.492h1.883v1.188A1.19 1.19 0 0138 21.375zm0-5.938h1.883a.492.492 0 01.348.84l-.348.348h-3.07A1.19 1.19 0 0138 15.437zm-7.125 7.126h4.472c.154.17.324.327.507.466l-2.256 2.256 1.68 1.68 1.535-1.536v6.634h2.374v-6.634l1.536 1.536 1.68-1.68-2.257-2.256c.183-.139.353-.295.507-.466h4.472a3.567 3.567 0 013.563 3.562v8.313h-2.376v-7.126h-2.374v8.313H32.062v-8.313h-2.374v7.125h-2.375v-8.312a3.567 3.567 0 013.562-3.563zM27.312 38v-1.188h2.375v3.563A2.378 2.378 0 0127.313 38zm40.376-17.812H66.5v-3.563a3.563 3.563 0 10-7.125 0v3.563h-1.188a5.944 5.944 0 00-5.937 5.937V38A4.755 4.755 0 0057 42.75v16.133l-3.215 3.215a1.188 1.188 0 00-.347.84v1.187a1.187 1.187 0 001.187 1.188H71.25a1.187 1.187 0 001.188-1.188v-1.188a1.187 1.187 0 00-.348-.84l-3.215-3.214V42.75a4.755 4.755 0 004.75-4.75V26.125a5.944 5.944 0 00-5.938-5.938zm-4.75-4.75a1.19 1.19 0 011.187 1.187h-1.188c-.184 0-.366.043-.53.125l-.657.329v-.454a1.19 1.19 0 011.188-1.188zM64.124 19v1.188a1.188 1.188 0 01-2.375 0v-.454L63.218 19h.907zm-5.938 3.563h2.098a3.557 3.557 0 005.305 0h2.097a3.567 3.567 0 013.563 3.562v3.563h-2.375v-2.375H66.5v5.937h-7.125v-5.938H57v2.375h-2.375v-3.562a3.567 3.567 0 013.563-3.563zM66.5 58.187h-2.375V46.313H66.5v11.874zm-7.125-11.874h2.375v11.874h-2.375V46.313zm7.125-2.376h-2.375v-4.75H61.75v4.75h-2.375v-8.312H66.5v8.313zM54.625 38v-5.938H57v8.313A2.378 2.378 0 0154.625 38zm4.054 22.563h3.071v2.374h-5.446l2.375-2.374zm10.892 2.374h-5.446v-2.374h3.07l2.376 2.374zm-.696-22.562v-8.313h2.375V38a2.378 2.378 0 01-2.375 2.375zm-46.312-3.562V24.937a4.755 4.755 0 00-4.75-4.75H16.03v-3.562c0-.752-.238-1.484-.68-2.091a4.75 4.75 0 10-6.445 5.307v.346h-1.78a4.755 4.755 0 00-4.75 4.75v11.875a4.758 4.758 0 003.344 4.538l-.946 4.73a1.187 1.187 0 001.165 1.42v11.383l-3.215 3.215a1.188 1.188 0 00-.348.84v1.187a1.187 1.187 0 001.188 1.188h17.812a1.187 1.187 0 001.188-1.188v-1.188a1.187 1.187 0 00-.348-.84L19 58.884V47.5a1.187 1.187 0 001.165-1.42l-.947-4.73a4.758 4.758 0 003.345-4.538zM11.28 19.491l.321-.32 2.054.684v.331a1.188 1.188 0 01-2.375 0v-.695zm.376-2.806a1.182 1.182 0 00-.376-.059v-.002a1.188 1.188 0 012.375 0v.727l-2-.666zm-.97-3.623c.272 0 .542.047.798.139a3.568 3.568 0 00-2.579 3.423v.378a2.372 2.372 0 011.781-3.94zm-3.562 9.5h2.691a3.558 3.558 0 005.305 0h2.691a2.378 2.378 0 012.375 2.375v8.312h-2.375v-1.92a5.301 5.301 0 00.313-6.283l-.512-.768-1.976 1.317.512.768a2.917 2.917 0 01-.364 3.671 1.19 1.19 0 00-.348.84v2.375H9.5v-2.375a1.187 1.187 0 00-.348-.84 2.918 2.918 0 01-.363-3.67l.512-.769-1.977-1.317-.512.768a5.302 5.302 0 00.313 6.284v1.919H4.75v-8.313a2.378 2.378 0 012.375-2.375zm.261 22.562l1.9-9.5h6.366l1.9 9.5H7.386zM4.75 36.812v-1.187h2.114l-.674 3.37a2.378 2.378 0 01-1.44-2.182zM11.281 47.5v10.688H8.312V47.5h2.97zM7.617 60.563h3.664v2.374h-6.04l2.376-2.374zm6.04 2.374v-2.374h3.664l2.375 2.374h-6.04zm2.968-4.75h-2.969V47.5h2.969v10.688zm2.122-19.192l-.674-3.37h2.114v1.188a2.378 2.378 0 01-1.44 2.182z" fill="#181940"/></svg>