<svg width="134" height="257" fill="none" xmlns="http://www.w3.org/2000/svg"><path d="M82.807 120.149c9.97 3.422 18.005 9.002 24.106 16.74 6.101 7.589 9.151 16.591 9.151 27.007 0 16.368-5.506 29.165-16.517 38.39-11.011 9.226-24.477 13.839-40.399 13.839-12.35 0-23.436-2.827-33.257-8.482-9.672-5.654-16.814-13.987-21.427-24.998l30.802-17.856c3.868 11.011 11.83 16.517 23.882 16.517 6.994 0 12.276-1.637 15.847-4.911 3.571-3.273 5.357-7.44 5.357-12.499s-1.786-9.226-5.357-12.499c-3.571-3.274-8.853-4.911-15.847-4.911h-7.366l-13.615-20.311L66.514 90.24H9.374V56.76h100.44v29.016l-27.007 34.373z" fill="#FFD5AD"/><path stroke="#fff" stroke-width="3" d="M93.784 123.584l-83.28 29.163m122.398-15.352l-83.28 29.163"/></svg>