<svg width="157" height="257" fill="none" xmlns="http://www.w3.org/2000/svg"><path d="M9.91 213v-25.891l52.452-54.461c10.565-10.862 15.848-20.088 15.848-27.677 0-4.91-1.488-8.853-4.464-11.83-2.976-3.124-7.068-4.687-12.276-4.687-10.416 0-18.08 5.655-22.99 16.964L8.348 87.785c4.762-11.16 11.904-19.642 21.427-25.445 9.523-5.803 19.94-8.705 31.248-8.705 14.583 0 27.007 4.539 37.275 13.615 10.416 8.928 15.624 20.981 15.624 36.159 0 16.517-8.11 32.885-24.33 49.104l-25.89 26.114h52.452V213H9.91z" fill="#FFD5AD"/><path stroke="#fff" stroke-width="3" d="M116.784 61.584l-83.28 29.163"/><path transform="matrix(-.93588 .35231 .30972 .95083 98.297 79)" stroke="#fff" stroke-width="3" d="M0-1.5h103.963"/><path stroke="#fff" stroke-width="3" d="M155.902 75.395l-83.28 29.163"/><path transform="matrix(-.93588 .35231 .30972 .95083 144 96.346)" stroke="#fff" stroke-width="3" d="M0-1.5h103.963"/></svg>