<svg width="27" height="27" fill="none" xmlns="http://www.w3.org/2000/svg"><path d="M24.122 6.512C20.222.5 12.259-1.288 6.084 2.45.072 6.187-1.878 14.312 2.022 20.325l.325.487-1.3 4.875 4.875-1.3.487.325c2.113 1.138 4.388 1.788 6.663 1.788 2.437 0 4.875-.65 6.987-1.95 6.013-3.9 7.8-11.863 4.063-18.038zm-3.413 12.513c-.65.975-1.462 1.625-2.6 1.787-.65 0-1.462.325-4.712-.975-2.763-1.3-5.038-3.412-6.663-5.85-.975-1.137-1.462-2.6-1.625-4.062 0-1.3.488-2.438 1.3-3.25.325-.325.65-.488.975-.488h.813c.325 0 .65 0 .812.65.325.813 1.138 2.763 1.138 2.925a.494.494 0 010 .65c.162.325 0 .65-.163.813-.162.162-.325.487-.487.65-.325.162-.488.487-.325.812.65.975 1.462 1.95 2.275 2.763.975.812 1.95 1.462 3.087 1.95.325.162.65.162.813-.163.162-.325.975-1.137 1.3-1.462.325-.325.487-.325.812-.163l2.6 1.3c.325.163.65.325.813.488.162.487.162 1.137-.163 1.625z" fill="#fff"/></svg>